<svg width="55" height="56" viewBox="0 0 55 56" fill="none" xmlns="http://www.w3.org/2000/svg">
<path d="M0 0.75H55V55.75H0V0.75Z" fill="#F6F5F4"/>
<path d="M8.80029 34.63C8.80029 34.144 9.19428 33.75 9.68029 33.75H18.9203C19.4063 33.75 19.8003 34.144 19.8003 34.63V43.87C19.8003 44.356 19.4063 44.75 18.9203 44.75H9.68029C9.19428 44.75 8.80029 44.356 8.80029 43.87V34.63Z" fill="#FFCA00"/>
<path d="M22.0002 23.63C22.0002 23.144 22.3942 22.75 22.8802 22.75H32.1202C32.6063 22.75 33.0002 23.144 33.0002 23.63V43.87C33.0002 44.356 32.6063 44.75 32.1202 44.75H22.8802C22.3942 44.75 22.0002 44.356 22.0002 43.87V23.63Z" fill="#37CE91"/>
<path d="M35.2002 12.63C35.2002 12.144 35.5942 11.75 36.0802 11.75H45.3202C45.8062 11.75 46.2002 12.144 46.2002 12.63V43.87C46.2002 44.356 45.8062 44.75 45.3202 44.75H36.0802C35.5942 44.75 35.2002 44.356 35.2002 43.87V12.63Z" fill="#FB3757"/>
<path d="M8.80005 17.25C8.80005 14.2124 11.2625 11.75 14.3 11.75C17.3376 11.75 19.8 14.2124 19.8 17.25C19.8 20.2876 17.3376 22.75 14.3 22.75C11.2625 22.75 8.80005 20.2876 8.80005 17.25Z" fill="#0072FF"/>
</svg>
