<svg width="980" height="500" viewBox="0 0 980 500" fill="none" xmlns="http://www.w3.org/2000/svg">
<mask id="mask0_1637_65095" style="mask-type:alpha" maskUnits="userSpaceOnUse" x="0" y="0" width="980" height="500">
<rect width="980" height="500" fill="#D9D9D9"/>
</mask>
<g mask="url(#mask0_1637_65095)">
<rect width="980" height="500" fill="#F6F5F4"/>
<path d="M979.592 467.668H826.052V398.689H979.592" fill="white"/>
<path d="M979.592 467.668H826.052V398.689H979.592" stroke="black" stroke-width="1.5" stroke-miterlimit="10" stroke-linecap="round" stroke-linejoin="round"/>
<path d="M980 357H803.902C790.695 357 780 366.407 780 377.993C780 389.606 790.695 399 803.902 399H980" fill="white"/>
<path d="M980 357H803.902C790.695 357 780 366.407 780 377.993C780 389.606 790.695 399 803.902 399H980" stroke="black" stroke-width="1.5" stroke-miterlimit="10" stroke-linecap="round" stroke-linejoin="round"/>
<path d="M980 394H803V362H980" fill="white"/>
<path d="M980 394H803V362H980" stroke="black" stroke-width="1.5" stroke-miterlimit="10" stroke-linecap="round" stroke-linejoin="round"/>
<path d="M956.102 361.983C947.341 361.983 940.233 369.091 940.233 377.851C940.233 386.624 947.341 393.719 956.102 393.719" fill="white"/>
<path d="M956.102 361.983C947.341 361.983 940.233 369.091 940.233 377.851C940.233 386.624 947.341 393.719 956.102 393.719" stroke="black" stroke-width="1.5" stroke-miterlimit="10" stroke-linecap="round" stroke-linejoin="round"/>
<path d="M956.102 369.708C951.617 369.708 947.958 373.353 947.958 377.851C947.958 382.362 951.604 385.995 956.102 385.995" fill="white"/>
<path d="M956.102 369.708C951.617 369.708 947.958 373.353 947.958 377.851C947.958 382.362 951.604 385.995 956.102 385.995" stroke="black" stroke-width="1.5" stroke-miterlimit="10" stroke-linecap="round" stroke-linejoin="round"/>
<path d="M889.11 377.838C889.11 386.611 896.205 393.706 904.979 393.706C913.753 393.706 920.849 386.611 920.849 377.838C920.849 369.078 913.753 361.97 904.979 361.97C896.218 361.983 889.11 369.078 889.11 377.838Z" fill="white" stroke="black" stroke-width="1.5" stroke-miterlimit="10" stroke-linecap="round" stroke-linejoin="round"/>
<path d="M896.835 377.838C896.835 382.349 900.481 385.982 904.979 385.982C909.478 385.982 913.124 382.336 913.124 377.838C913.124 373.34 909.478 369.694 904.979 369.694C900.481 369.707 896.835 373.353 896.835 377.838Z" fill="white" stroke="black" stroke-width="1.5" stroke-miterlimit="10" stroke-linecap="round" stroke-linejoin="round"/>
<path d="M940 377.868C940 386.641 947.095 393.736 955.869 393.736C964.643 393.736 971.739 386.641 971.739 377.868C971.739 369.108 964.643 362 955.869 362C947.108 362.013 940 369.108 940 377.868Z" fill="white" stroke="black" stroke-width="1.5" stroke-miterlimit="10" stroke-linecap="round" stroke-linejoin="round"/>
<path d="M947.725 377.868C947.725 382.379 951.371 386.012 955.87 386.012C960.368 386.012 964.014 382.366 964.014 377.868C964.014 373.37 960.368 369.724 955.87 369.724C951.371 369.737 947.725 373.383 947.725 377.868Z" fill="white" stroke="black" stroke-width="1.5" stroke-miterlimit="10" stroke-linecap="round" stroke-linejoin="round"/>
<path d="M837.908 377.838C837.908 386.611 845.004 393.706 853.765 393.706C862.526 393.706 869.634 386.611 869.634 377.838C869.634 369.078 862.526 361.97 853.765 361.97C845.004 361.983 837.908 369.078 837.908 377.838Z" fill="white" stroke="black" stroke-width="1.5" stroke-miterlimit="10" stroke-linecap="round" stroke-linejoin="round"/>
<path d="M845.633 377.838C845.633 382.349 849.279 385.982 853.778 385.982C858.276 385.982 861.922 382.336 861.922 377.838C861.922 373.34 858.276 369.694 853.778 369.694C849.279 369.707 845.633 373.353 845.633 377.838Z" fill="white" stroke="black" stroke-width="1.5" stroke-miterlimit="10" stroke-linecap="round" stroke-linejoin="round"/>
<path d="M787 378C787 386.846 794.157 394 802.993 394C811.843 394 819 386.846 819 378C819 369.167 811.843 362 802.993 362C794.157 362.013 787 369.167 787 378Z" fill="white" stroke="black" stroke-width="1.5" stroke-miterlimit="10" stroke-linecap="round" stroke-linejoin="round"/>
<path d="M794.432 377.838C794.432 382.349 798.078 385.982 802.576 385.982C807.075 385.982 810.734 382.336 810.734 377.838C810.734 373.34 807.088 369.694 802.576 369.694C798.078 369.707 794.432 373.353 794.432 377.838Z" fill="white" stroke="black" stroke-width="1.5" stroke-miterlimit="10" stroke-linecap="round" stroke-linejoin="round"/>
<path d="M890.92 446.66V420" stroke="black" stroke-width="1.5" stroke-miterlimit="10" stroke-linecap="round" stroke-linejoin="round"/>
<path d="M883.431 446.66V420" stroke="black" stroke-width="1.5" stroke-miterlimit="10" stroke-linecap="round" stroke-linejoin="round"/>
<path d="M875.942 446.66V420" stroke="black" stroke-width="1.5" stroke-miterlimit="10" stroke-linecap="round" stroke-linejoin="round"/>
<path d="M868.453 446.66V420" stroke="black" stroke-width="1.5" stroke-miterlimit="10" stroke-linecap="round" stroke-linejoin="round"/>
<path d="M860.978 446.66V420" stroke="black" stroke-width="1.5" stroke-miterlimit="10" stroke-linecap="round" stroke-linejoin="round"/>
<path d="M853.489 446.66V420" stroke="black" stroke-width="1.5" stroke-miterlimit="10" stroke-linecap="round" stroke-linejoin="round"/>
<path d="M846 446.66V420" stroke="black" stroke-width="1.5" stroke-miterlimit="10" stroke-linecap="round" stroke-linejoin="round"/>
<path d="M0.408295 471.668H153.948V402.689H0.408295" fill="white"/>
<path d="M0.408299 471.668H153.948V402.689H0.408299" stroke="black" stroke-width="1.5" stroke-miterlimit="10" stroke-linecap="round" stroke-linejoin="round"/>
<path d="M0 361H176.098C189.305 361 200 370.407 200 381.993C200 393.606 189.305 403 176.098 403H0" fill="white"/>
<path d="M-3.36405e-06 361H176.098C189.305 361 200 370.407 200 381.993C200 393.606 189.305 403 176.098 403H-3.36405e-06" stroke="black" stroke-width="1.5" stroke-miterlimit="10" stroke-linecap="round" stroke-linejoin="round"/>
<path d="M0 398H177V366H0" fill="white"/>
<path d="M5.87438e-06 398H177V366H5.87438e-06" stroke="black" stroke-width="1.5" stroke-miterlimit="10" stroke-linecap="round" stroke-linejoin="round"/>
<path d="M23.8978 365.983C32.6587 365.983 39.7671 373.091 39.7671 381.851C39.7671 390.624 32.6587 397.719 23.8978 397.719" fill="white"/>
<path d="M23.8978 365.983C32.6587 365.983 39.7671 373.091 39.7671 381.851C39.7671 390.624 32.6587 397.719 23.8978 397.719" stroke="black" stroke-width="1.5" stroke-miterlimit="10" stroke-linecap="round" stroke-linejoin="round"/>
<path d="M23.8979 373.708C28.3833 373.708 32.0424 377.353 32.0424 381.851C32.0424 386.362 28.3964 389.995 23.8979 389.995" fill="white"/>
<path d="M23.8979 373.708C28.3833 373.708 32.0424 377.353 32.0424 381.851C32.0424 386.362 28.3964 389.995 23.8979 389.995" stroke="black" stroke-width="1.5" stroke-miterlimit="10" stroke-linecap="round" stroke-linejoin="round"/>
<path d="M90.8901 381.838C90.8901 390.611 83.7949 397.706 75.0208 397.706C66.2468 397.706 59.1515 390.611 59.1515 381.838C59.1515 373.078 66.2468 365.97 75.0208 365.97C83.7817 365.983 90.8901 373.078 90.8901 381.838Z" fill="white" stroke="black" stroke-width="1.5" stroke-miterlimit="10" stroke-linecap="round" stroke-linejoin="round"/>
<path d="M83.1654 381.838C83.1654 386.349 79.5194 389.982 75.0209 389.982C70.5223 389.982 66.8763 386.336 66.8763 381.838C66.8763 377.34 70.5223 373.694 75.0209 373.694C79.5194 373.707 83.1654 377.353 83.1654 381.838Z" fill="white" stroke="black" stroke-width="1.5" stroke-miterlimit="10" stroke-linecap="round" stroke-linejoin="round"/>
<path d="M40.0004 381.868C40.0004 390.641 32.9051 397.736 24.131 397.736C15.357 397.736 8.26171 390.641 8.26171 381.868C8.26171 373.108 15.357 366 24.131 366C32.892 366.013 40.0004 373.108 40.0004 381.868Z" fill="white" stroke="black" stroke-width="1.5" stroke-miterlimit="10" stroke-linecap="round" stroke-linejoin="round"/>
<path d="M32.275 381.868C32.275 386.379 28.629 390.012 24.1305 390.012C19.632 390.012 15.9859 386.366 15.9859 381.868C15.9859 377.37 19.632 373.724 24.1305 373.724C28.629 373.737 32.275 377.383 32.275 381.868Z" fill="white" stroke="black" stroke-width="1.5" stroke-miterlimit="10" stroke-linecap="round" stroke-linejoin="round"/>
<path d="M142.092 381.838C142.092 390.611 134.997 397.706 126.236 397.706C117.475 397.706 110.366 390.611 110.366 381.838C110.366 373.078 117.475 365.97 126.236 365.97C134.997 365.983 142.092 373.078 142.092 381.838Z" fill="white" stroke="black" stroke-width="1.5" stroke-miterlimit="10" stroke-linecap="round" stroke-linejoin="round"/>
<path d="M134.367 381.838C134.367 386.349 130.721 389.982 126.222 389.982C121.724 389.982 118.078 386.336 118.078 381.838C118.078 377.34 121.724 373.694 126.222 373.694C130.721 373.707 134.367 377.353 134.367 381.838Z" fill="white" stroke="black" stroke-width="1.5" stroke-miterlimit="10" stroke-linecap="round" stroke-linejoin="round"/>
<path d="M193 382C193 390.846 185.843 398 177.007 398C168.157 398 161 390.846 161 382C161 373.167 168.157 366 177.007 366C185.843 366.013 193 373.167 193 382Z" fill="white" stroke="black" stroke-width="1.5" stroke-miterlimit="10" stroke-linecap="round" stroke-linejoin="round"/>
<path d="M185.568 381.838C185.568 386.349 181.923 389.982 177.424 389.982C172.926 389.982 169.266 386.336 169.266 381.838C169.266 377.34 172.912 373.694 177.424 373.694C181.923 373.707 185.568 377.353 185.568 381.838Z" fill="white" stroke="black" stroke-width="1.5" stroke-miterlimit="10" stroke-linecap="round" stroke-linejoin="round"/>
<path d="M89.0802 450.66V424" stroke="black" stroke-width="1.5" stroke-miterlimit="10" stroke-linecap="round" stroke-linejoin="round"/>
<path d="M96.5693 450.66V424" stroke="black" stroke-width="1.5" stroke-miterlimit="10" stroke-linecap="round" stroke-linejoin="round"/>
<path d="M104.058 450.66V424" stroke="black" stroke-width="1.5" stroke-miterlimit="10" stroke-linecap="round" stroke-linejoin="round"/>
<path d="M111.547 450.66V424" stroke="black" stroke-width="1.5" stroke-miterlimit="10" stroke-linecap="round" stroke-linejoin="round"/>
<path d="M119.022 450.66V424" stroke="black" stroke-width="1.5" stroke-miterlimit="10" stroke-linecap="round" stroke-linejoin="round"/>
<path d="M126.511 450.66V424" stroke="black" stroke-width="1.5" stroke-miterlimit="10" stroke-linecap="round" stroke-linejoin="round"/>
<path d="M134 450.66V424" stroke="black" stroke-width="1.5" stroke-miterlimit="10" stroke-linecap="round" stroke-linejoin="round"/>
<path d="M800.867 91.2596L795.371 103.101L775.331 94.1577L780.84 82.3159L800.867 91.2596Z" fill="white" stroke="black" stroke-width="1.5" stroke-miterlimit="10" stroke-linecap="round" stroke-linejoin="round"/>
<path d="M752.891 0H699.867V16.4448H752.891V0Z" fill="white" stroke="black" stroke-width="1.5" stroke-miterlimit="10" stroke-linecap="round" stroke-linejoin="round"/>
<path d="M877.971 85.9089L885.446 94.7346C886.928 96.4918 886.718 99.1408 884.961 100.623C883.204 102.105 880.554 101.895 879.072 100.137L871.597 91.3118L877.971 85.9089Z" fill="white" stroke="black" stroke-width="1.5" stroke-miterlimit="10" stroke-linecap="round" stroke-linejoin="round"/>
<path d="M705.309 24.2085H747.462L740.812 55.8523H711.946L705.309 24.2085Z" fill="white" stroke="black" stroke-width="1.5" stroke-miterlimit="10" stroke-linecap="round" stroke-linejoin="round"/>
<path d="M708.102 24.2065L744.667 24.2065L744.667 20.3511L708.102 20.3511L708.102 24.2065Z" fill="white" stroke="black" stroke-width="1.5" stroke-miterlimit="10" stroke-linecap="round" stroke-linejoin="round"/>
<path d="M752.891 16.4445L747.462 20.3655H705.309L699.867 16.4445H752.891Z" fill="white" stroke="black" stroke-width="1.5" stroke-miterlimit="10" stroke-linecap="round" stroke-linejoin="round"/>
<path d="M792.604 109.055L798.676 123.664L806.493 127.296L826.494 84.2434L818.664 80.6108L803.594 85.3974L792.604 109.055Z" fill="white" stroke="black" stroke-width="1.5" stroke-miterlimit="10" stroke-linecap="round" stroke-linejoin="round"/>
<path d="M717.008 16.4448L708.313 0H714.988L723.684 16.4448H717.008Z" fill="white" stroke="black" stroke-width="1.5" stroke-miterlimit="10" stroke-linecap="round" stroke-linejoin="round"/>
<path d="M730.281 16.4448L721.572 0H728.248L736.956 16.4448H730.281Z" fill="white" stroke="black" stroke-width="1.5" stroke-miterlimit="10" stroke-linecap="round" stroke-linejoin="round"/>
<path d="M743.54 16.4448L734.832 0H741.507L750.216 16.4448H743.54Z" fill="white" stroke="black" stroke-width="1.5" stroke-miterlimit="10" stroke-linecap="round" stroke-linejoin="round"/>
<path d="M710.962 42.3706C714.293 33.8597 723.893 29.6501 732.405 32.981C737.979 35.1579 741.678 40.0232 742.661 45.5048H742.674L757.062 123.441H757.049C757.442 125.683 757.245 128.057 756.367 130.325C753.77 136.961 746.281 140.239 739.645 137.643C735.815 136.148 733.1 133.014 731.999 129.355H731.986L710.424 52.8092H710.437C709.519 49.4783 709.611 45.8326 710.962 42.3706Z" fill="white" stroke="black" stroke-width="1.5" stroke-miterlimit="10" stroke-linecap="round" stroke-linejoin="round"/>
<path d="M744.353 130.614C747.113 130.614 749.35 128.377 749.35 125.617C749.35 122.858 747.113 120.621 744.353 120.621C741.594 120.621 739.356 122.858 739.356 125.617C739.356 128.377 741.594 130.614 744.353 130.614Z" fill="white" stroke="black" stroke-width="1.5" stroke-miterlimit="10" stroke-linecap="round" stroke-linejoin="round"/>
<path d="M726.385 57.5434C731.434 57.5434 735.527 53.4511 735.527 48.4031C735.527 43.355 731.434 39.2627 726.385 39.2627C721.337 39.2627 717.244 43.355 717.244 48.4031C717.244 53.4511 721.337 57.5434 726.385 57.5434Z" fill="white" stroke="black" stroke-width="1.5" stroke-miterlimit="10" stroke-linecap="round" stroke-linejoin="round"/>
<path d="M726.385 53.688C729.305 53.688 731.671 51.3218 731.671 48.4031C731.671 45.4843 729.305 43.1182 726.385 43.1182C723.466 43.1182 721.1 45.4843 721.1 48.4031C721.1 51.3218 723.466 53.688 726.385 53.688Z" fill="white" stroke="black" stroke-width="1.5" stroke-miterlimit="10" stroke-linecap="round" stroke-linejoin="round"/>
<path d="M701.716 0L710.424 16.4448H703.749L699.867 9.12726V0H701.716Z" fill="white" stroke="black" stroke-width="1.5" stroke-miterlimit="10" stroke-linecap="round" stroke-linejoin="round"/>
<path d="M752.891 0V9.06169L748.104 0H752.891Z" fill="white" stroke="black" stroke-width="1.5" stroke-miterlimit="10" stroke-linecap="round" stroke-linejoin="round"/>
<path d="M840.96 165.563L852.527 165.589C854.822 165.589 856.711 163.713 856.711 161.419C856.711 159.124 854.835 157.235 852.54 157.235L840.973 157.209L840.96 165.563Z" fill="white" stroke="black" stroke-width="1.5" stroke-miterlimit="10" stroke-linecap="round" stroke-linejoin="round"/>
<path d="M809.719 157.261C811.149 155.452 813.405 154.704 815.516 155.085V155.058L840.973 158.507L840.96 164.382L815.372 166.9C813.772 167.149 812.093 166.782 810.729 165.694C808.106 163.661 807.66 159.871 809.719 157.261Z" fill="white" stroke="black" stroke-width="1.5" stroke-miterlimit="10" stroke-linecap="round" stroke-linejoin="round"/>
<path d="M801.758 113.081C806.296 111.599 811.162 114.077 812.644 118.615C812.827 119.192 812.959 119.782 813.011 120.372L820.395 160.107H820.382C820.395 160.173 820.408 160.225 820.421 160.278C820.801 163.582 818.441 166.572 815.136 166.953C812.264 167.294 809.64 165.536 808.749 162.914L808.736 162.874V162.861L796.315 124.215H796.342C796.315 124.123 796.263 124.057 796.237 123.965C794.742 119.428 797.22 114.563 801.758 113.081Z" fill="white" stroke="black" stroke-width="1.5" stroke-miterlimit="10" stroke-linecap="round" stroke-linejoin="round"/>
<path d="M814.441 163.176C815.65 163.176 816.631 162.195 816.631 160.986C816.631 159.776 815.65 158.796 814.441 158.796C813.231 158.796 812.251 159.776 812.251 160.986C812.251 162.195 813.231 163.176 814.441 163.176Z" fill="white" stroke="black" stroke-width="1.5" stroke-miterlimit="10" stroke-linecap="round" stroke-linejoin="round"/>
<path d="M804.408 125.08C806.515 125.08 808.224 123.371 808.224 121.264C808.224 119.156 806.515 117.448 804.408 117.448C802.3 117.448 800.591 119.156 800.591 121.264C800.591 123.371 802.3 125.08 804.408 125.08Z" fill="white" stroke="black" stroke-width="1.5" stroke-miterlimit="10" stroke-linecap="round" stroke-linejoin="round"/>
<path d="M851.478 67.3783C851.019 69.6339 851.898 71.837 853.563 73.214L853.537 73.2271L872.593 90.4587L877.079 86.6557L862.508 65.4768C861.669 64.0999 860.305 63.0507 858.6 62.6967C855.334 62.041 852.147 64.1261 851.478 67.3783Z" fill="white" stroke="black" stroke-width="1.5" stroke-miterlimit="10" stroke-linecap="round" stroke-linejoin="round"/>
<path d="M812.578 89.7899C814.375 94.2093 819.411 96.3338 823.831 94.5372C824.395 94.3011 824.92 94.0126 825.418 93.6848L860.554 73.7123V73.6992C860.606 73.673 860.659 73.6468 860.711 73.6205C863.478 71.7846 864.239 68.0471 862.403 65.2801C860.803 62.8672 857.773 61.9885 855.19 62.9983L855.15 63.0114H855.137L817.588 78.4333L817.602 78.4596C817.51 78.4858 817.431 78.4989 817.339 78.5382C812.906 80.3348 810.782 85.3706 812.578 89.7899Z" fill="white" stroke="black" stroke-width="1.5" stroke-miterlimit="10" stroke-linecap="round" stroke-linejoin="round"/>
<path d="M857.367 70.7881C858.576 70.7881 859.557 69.8076 859.557 68.5981C859.557 67.3886 858.576 66.4081 857.367 66.4081C856.157 66.4081 855.177 67.3886 855.177 68.5981C855.177 69.8076 856.157 70.7881 857.367 70.7881Z" fill="white" stroke="black" stroke-width="1.5" stroke-miterlimit="10" stroke-linecap="round" stroke-linejoin="round"/>
<path d="M820.539 90.3543C822.647 90.3543 824.356 88.6458 824.356 86.5382C824.356 84.4306 822.647 82.722 820.539 82.722C818.432 82.722 816.723 84.4306 816.723 86.5382C816.723 88.6458 818.432 90.3543 820.539 90.3543Z" fill="white" stroke="black" stroke-width="1.5" stroke-miterlimit="10" stroke-linecap="round" stroke-linejoin="round"/>
<path d="M735.553 116.307L771.803 81.3848L771.816 81.3979C774.4 78.8931 778.204 77.7522 781.928 78.762C787.568 80.2832 790.912 86.0795 789.404 91.7185C788.984 93.2659 788.237 94.6429 787.266 95.7969L787.279 95.81L754.662 133.408L754.596 133.342C752.511 136.096 749.35 138.024 745.639 138.391C738.596 139.086 732.314 133.945 731.605 126.903C731.186 122.772 732.773 118.943 735.553 116.307Z" fill="white" stroke="black" stroke-width="1.5" stroke-miterlimit="10" stroke-linecap="round" stroke-linejoin="round"/>
<path d="M744.353 130.614C747.113 130.614 749.35 128.377 749.35 125.618C749.35 122.858 747.113 120.621 744.353 120.621C741.593 120.621 739.356 122.858 739.356 125.618C739.356 128.377 741.593 130.614 744.353 130.614Z" fill="white" stroke="black" stroke-width="1.5" stroke-miterlimit="10" stroke-linecap="round" stroke-linejoin="round"/>
<path d="M779.187 93.8688C781.896 93.8688 784.092 91.6729 784.092 88.9642C784.092 86.2554 781.896 84.0596 779.187 84.0596C776.478 84.0596 774.282 86.2554 774.282 88.9642C774.282 91.6729 776.478 93.8688 779.187 93.8688Z" fill="white" stroke="black" stroke-width="1.5" stroke-miterlimit="10" stroke-linecap="round" stroke-linejoin="round"/>
<rect x="334" y="131" width="327.879" height="196.708" rx="2" fill="black"/>
<rect width="315.879" height="184.708" transform="translate(340 137)" fill="white"/>
<rect x="348" y="145" width="17" height="17" rx="2" fill="#E8E7E3"/>
<rect x="348" y="170" width="17" height="60" rx="2" fill="#E8E7E3"/>
<rect x="348" y="238" width="17" height="60" rx="2" fill="#E8E7E3"/>
<rect x="348" y="306" width="17" height="7.70815" rx="2" fill="#E8E7E3"/>
<rect x="373" y="145" width="62.7198" height="17" rx="2" fill="#E8E7E3"/>
<rect x="443.72" y="145" width="62.7198" height="17" rx="2" fill="#E8E7E3"/>
<rect x="514.44" y="145" width="62.7198" height="17" rx="2" fill="#E8E7E3"/>
<rect x="585.16" y="145" width="62.7198" height="17" rx="2" fill="#E8E7E3"/>
<rect x="373" y="170" width="62.7198" height="60" rx="2" fill="#E8E7E3"/>
<rect x="443.72" y="170" width="62.7198" height="60" rx="2" fill="#E8E7E3"/>
<rect x="514.44" y="170" width="62.7198" height="60" rx="2" fill="#E8E7E3"/>
<rect x="585.16" y="170" width="62.7198" height="60" rx="2" fill="#E8E7E3"/>
<rect x="373" y="238" width="62.7198" height="60" rx="2" fill="#E8E7E3"/>
<rect x="443.72" y="238" width="62.7198" height="60" rx="2" fill="#E8E7E3"/>
<rect x="514.44" y="238" width="62.7198" height="60" rx="2" fill="#E8E7E3"/>
<rect x="585.16" y="238" width="62.7198" height="60" rx="2" fill="#E8E7E3"/>
<rect x="373" y="306" width="62.7198" height="7.70815" rx="2" fill="#E8E7E3"/>
<rect x="443.72" y="306" width="62.7198" height="7.70815" rx="2" fill="#E8E7E3"/>
<rect x="514.44" y="306" width="62.7198" height="7.70815" rx="2" fill="#E8E7E3"/>
<rect x="585.16" y="306" width="62.7198" height="7.70815" rx="2" fill="#E8E7E3"/>
<path d="M193 473H674" stroke="black" stroke-width="1.5"/>
<path d="M631 500L819 500" stroke="black" stroke-width="1.5"/>
<path d="M284.012 447.476L271.421 447.502L274.831 461.429L287.015 459.764L284.012 447.476Z" fill="white" stroke="black" stroke-width="1.5" stroke-miterlimit="10" stroke-linecap="round" stroke-linejoin="round"/>
<path d="M303.291 459.318L294.425 456.459C291.619 450.204 282.832 449.941 279.671 456.026L279.658 456.039C278.097 457.849 275.395 458.006 273.612 456.42L272.956 453.731C272.956 453.731 271.015 453.705 270.569 457.639L269.52 468.157C269.52 470.53 271.434 472.445 273.808 472.445H307.567C309.941 472.445 311.934 470.543 311.934 468.157C311.921 461.692 303.291 459.318 303.291 459.318Z" fill="white" stroke="black" stroke-width="1.5" stroke-miterlimit="10" stroke-linecap="round" stroke-linejoin="round"/>
<path d="M269.506 468.143H311.921" stroke="black" stroke-width="1.5" stroke-miterlimit="10" stroke-linecap="round" stroke-linejoin="round"/>
<path d="M227.708 447.502H240.823L241.833 462.78H229.098L227.708 447.502Z" fill="white" stroke="black" stroke-width="1.5" stroke-miterlimit="10" stroke-linecap="round" stroke-linejoin="round"/>
<path d="M241.23 453.666C241.23 453.666 244.706 453.338 245.151 457.626L246.201 468.143C246.201 470.517 244.286 472.432 241.912 472.432H208.534C206.16 472.432 204.245 470.517 204.245 468.143C204.245 461.324 212.377 458.649 212.377 458.649L222.554 453.613C225.728 449.036 232.626 449.469 235.197 454.413L235.827 455.633C236.954 457.534 239.643 458.518 241.44 456.931L241.23 453.666Z" fill="white" stroke="black" stroke-width="1.5" stroke-miterlimit="10" stroke-linecap="round" stroke-linejoin="round"/>
<path d="M246.188 468.143H204.245" stroke="black" stroke-width="1.5" stroke-miterlimit="10" stroke-linecap="round" stroke-linejoin="round"/>
<path d="M299.317 297.388L281.402 261.56C279.684 258.112 276.405 255.213 272.72 254.387L255.631 251.515H247.63H247.604H239.604L222.502 254.387C218.816 255.213 215.551 258.112 213.819 261.56L197.898 293.401C195.104 298.987 199.17 305.571 205.426 305.571H225.164L224.823 291.25H215.052L222.423 276.497C222.961 275.435 224.574 275.881 224.469 277.074L225.335 311.393H247.617H269.9L270.766 277.074C270.661 275.881 272.274 275.435 272.811 276.497L281.664 294.201L270.411 291.25L270.044 306.017L288.405 310.829C296.314 312.928 302.989 304.718 299.317 297.388Z" fill="white" stroke="black" stroke-width="1.5" stroke-miterlimit="10"/>
<path d="M247.617 264.236V273.874" stroke="black" stroke-width="1.5" stroke-miterlimit="10" stroke-linecap="round" stroke-linejoin="round"/>
<path d="M219.42 348.02C214.541 325.268 225.348 311.419 225.348 311.419H269.9C269.9 311.419 277.008 317.845 279.671 340.296L288.838 448.459H268.483L251.473 344.584C251.407 343.037 250.384 341.83 249.139 341.83C247.906 341.83 246.87 343.037 246.804 344.584L245.191 448.459H224.836L219.42 348.02Z" fill="black" stroke="black" stroke-width="1.5" stroke-miterlimit="10"/>
<path d="M254.922 249.339V251.542C254.922 253.286 254.306 254.886 253.283 256.145L251.08 259.292L258.818 264.275V254.794C258.831 254.781 259.106 250.322 254.922 249.339Z" fill="white" stroke="black" stroke-width="1.5" stroke-miterlimit="10" stroke-linejoin="round"/>
<path d="M240.312 249.339V251.542C240.312 253.286 240.929 254.886 241.952 256.145L244.155 259.292L236.417 264.275V254.794C236.404 254.781 236.128 250.322 240.312 249.339Z" fill="white" stroke="black" stroke-width="1.5" stroke-miterlimit="10" stroke-linejoin="round"/>
<path d="M224.954 260.21L226.279 263.528L229.571 262.216L228.246 258.898C227.879 257.994 226.856 257.548 225.938 257.915C225.033 258.269 224.587 259.305 224.954 260.21Z" fill="white" stroke="black" stroke-width="1.5" stroke-miterlimit="10" stroke-linejoin="round"/>
<path d="M238.463 295.709L242.791 300.05L242.935 293.926L230.161 261.967L225.675 263.764L238.463 295.709Z" fill="white" stroke="black" stroke-width="1.5" stroke-miterlimit="10" stroke-linejoin="round"/>
<path d="M212.39 291.264H215.065" stroke="black" stroke-width="1.5" stroke-miterlimit="10" stroke-linecap="round" stroke-linejoin="round"/>
<path d="M277.651 282.372H220.01C218.685 282.372 217.741 283.67 218.148 284.929L225.125 306.331C225.387 307.131 226.135 307.682 226.987 307.682H270.687C271.526 307.682 272.287 307.144 272.549 306.331L279.527 284.929C279.92 283.67 278.976 282.372 277.651 282.372Z" fill="#A19F9A" stroke="black" stroke-width="1.5" stroke-miterlimit="10"/>
<path d="M247.617 297.663C251.036 297.663 253.808 296.248 253.808 294.502C253.808 292.757 251.036 291.342 247.617 291.342C244.199 291.342 241.427 292.757 241.427 294.502C241.427 296.248 244.199 297.663 247.617 297.663Z" fill="#E8E7E3"/>
<path d="M277.599 290.844L276.432 294.424H259.579C258.687 294.424 257.874 295.014 257.703 295.893C257.467 297.06 258.372 298.096 259.5 298.096H255.867C254.975 298.096 254.162 298.686 253.992 299.565C253.756 300.732 254.66 301.768 255.788 301.768H256.942C256.942 302.935 257.716 303.958 258.831 304.273L262.412 305.282C263.5 307.092 265.126 309.256 267.002 310.226L268.34 310.921C272.025 312.823 276.497 312.311 279.658 309.636C285.861 304.417 284.773 294.595 277.599 290.844Z" fill="white" stroke="black" stroke-width="1.5" stroke-miterlimit="10"/>
<path d="M259.5 298.095H264.72C265.402 298.095 266.07 298.174 266.739 298.344L274.163 300.207" stroke="black" stroke-width="1.5" stroke-miterlimit="10" stroke-linecap="round" stroke-linejoin="round"/>
<path d="M262.425 305.295L270.844 307.944" stroke="black" stroke-width="1.5" stroke-miterlimit="10" stroke-linecap="round" stroke-linejoin="round"/>
<path d="M256.955 301.767H262.031C262.805 301.767 263.578 301.859 264.339 302.056L272.536 304.075" stroke="black" stroke-width="1.5" stroke-miterlimit="10" stroke-linecap="round" stroke-linejoin="round"/>
<path d="M279.592 281.48C279.579 280.444 278.753 279.553 277.651 279.553H220.01C218.908 279.553 218.082 280.457 218.069 281.48V284.3C218.082 283.264 218.908 282.372 220.01 282.372H277.651C278.753 282.372 279.579 283.277 279.592 284.3V281.48Z" fill="#A19F9A" stroke="black" stroke-width="1.5" stroke-miterlimit="10"/>
<path d="M240.312 240.893V251.542C240.312 253.286 240.928 254.886 241.951 256.145L247.63 264.236L253.309 256.145C254.332 254.886 254.949 253.286 254.949 251.542V246.624L247.643 235.293L240.312 240.893Z" fill="white" stroke="black" stroke-width="1.5" stroke-miterlimit="10"/>
<path d="M240.312 240.893V251.542C240.312 253.286 240.928 254.886 241.951 256.145L247.63 264.236L253.309 256.145C254.332 254.886 254.949 253.286 254.949 251.542V246.624L247.643 235.293L240.312 240.893Z" stroke="black" stroke-width="1.5" stroke-miterlimit="10"/>
<path d="M261.598 240.88C262.673 241.745 264.195 241.824 265.375 240.972H265.362C266.542 240.132 266.988 238.611 266.556 237.273C267.788 237.877 269.297 237.601 270.254 236.513C271.211 235.411 271.316 233.838 270.621 232.631C271.946 232.933 273.362 232.316 274.07 231.031C274.766 229.746 274.543 228.172 273.598 227.163C274.949 227.15 276.195 226.232 276.602 224.802C277.008 223.386 276.444 221.917 275.303 221.143C276.615 220.816 277.638 219.635 277.743 218.153C277.835 216.685 276.956 215.373 275.697 214.888C276.93 214.259 277.664 212.855 277.415 211.4C277.179 209.931 276.025 208.843 274.648 208.685C275.684 207.754 276.064 206.18 275.461 204.83C274.857 203.466 273.441 202.731 272.09 202.954C272.851 201.774 272.798 200.148 271.867 199.007C270.923 197.866 269.402 197.565 268.142 198.155C268.575 196.804 268.116 195.27 266.936 194.417C265.755 193.578 264.208 193.683 263.146 194.562C263.264 193.158 262.49 191.795 261.152 191.257C259.841 190.706 258.372 191.152 257.532 192.227C257.349 190.863 256.339 189.696 254.949 189.447C253.571 189.185 252.234 189.906 251.604 191.113C251.185 189.814 249.991 188.87 248.601 188.87C247.211 188.87 246.017 189.814 245.597 191.113C244.968 189.906 243.63 189.185 242.253 189.447C240.863 189.696 239.84 190.863 239.669 192.227C238.817 191.152 237.361 190.706 236.05 191.257C234.725 191.795 233.951 193.158 234.056 194.562C232.994 193.683 231.446 193.578 230.266 194.417C229.085 195.27 228.626 196.804 229.059 198.155C227.8 197.565 226.279 197.866 225.335 199.007C224.403 200.148 224.351 201.774 225.112 202.954C223.761 202.731 222.344 203.466 221.741 204.83C221.138 206.18 221.518 207.754 222.554 208.685C221.19 208.843 220.036 209.931 219.787 211.4C219.551 212.855 220.285 214.259 221.505 214.888C220.233 215.373 219.367 216.685 219.459 218.153C219.564 219.635 220.574 220.816 221.898 221.143C220.757 221.917 220.193 223.386 220.6 224.802C221.007 226.232 222.252 227.15 223.603 227.163C222.659 228.172 222.436 229.746 223.131 231.031C223.839 232.316 225.243 232.933 226.58 232.631C225.885 233.838 225.99 235.411 226.948 236.513C227.905 237.601 229.413 237.877 230.646 237.273C230.213 238.611 230.659 240.132 231.84 240.972H231.827C233.007 241.824 234.528 241.745 235.604 240.88H235.656C235.84 241.601 236.259 242.257 236.889 242.703H236.876C238.056 243.555 239.578 243.476 240.653 242.611L261.598 240.88Z" fill="black"/>
<path d="M253.139 241.68C254.358 241.418 255.906 242.309 257.034 241.877C258.188 241.431 258.7 239.739 259.749 239.136C260.811 238.519 262.621 238.847 263.565 238.074C264.497 237.3 264.365 235.595 265.152 234.69C265.939 233.798 267.802 233.523 268.418 232.526C269.021 231.53 268.339 230.022 268.68 228.92C269.218 227.189 271.329 226.874 271.329 225.563C271.329 224.212 269.9 224.291 269.9 222.94C269.9 221.589 271.329 221.511 271.329 220.16C271.329 218.809 269.9 218.875 269.9 217.524C269.9 216.173 271.329 215.728 271.329 214.364C271.329 213 269.795 212.882 269.533 211.911C269.284 210.915 270.241 209.459 269.743 208.554C269.257 207.663 267.461 207.558 266.765 206.758C266.097 205.984 266.372 204.318 265.519 203.663C264.693 203.02 262.936 203.532 261.978 203.007C261.047 202.509 260.719 200.883 259.683 200.515C258.673 200.161 257.139 201.119 256.037 200.896C254.975 200.673 254.162 199.23 253.021 199.152C251.932 199.073 250.712 200.371 249.571 200.424C248.43 200.476 247.211 199.309 246.122 199.493C244.994 199.689 244.168 201.224 243.106 201.551C242.004 201.892 240.47 201.079 239.46 201.538C238.41 202.01 238.096 203.676 237.164 204.266C236.207 204.882 234.45 204.555 233.623 205.276C232.771 206.023 233.059 207.649 232.377 208.489C231.682 209.354 229.886 209.643 229.4 210.587C228.915 211.544 229.872 212.908 229.61 213.918C229.361 214.928 227.813 215.19 227.813 216.554C227.813 217.904 229.243 218.206 229.243 219.57C229.243 220.934 227.813 220.999 227.813 222.35C227.813 223.701 229.243 223.635 229.243 224.986C229.243 226.337 227.813 226.402 227.813 227.753C227.813 229.064 229.925 229.156 230.463 230.835C230.804 231.91 230.109 233.484 230.725 234.415C231.341 235.359 233.204 235.438 233.991 236.251C234.778 237.064 234.633 238.795 235.578 239.477C236.509 240.146 238.332 239.634 239.394 240.146C240.443 240.657 240.955 242.283 242.109 242.611C243.25 242.939 244.797 241.89 246.004 242.021" fill="black"/>
<path d="M253.139 241.68C254.358 241.418 255.906 242.309 257.034 241.877C258.188 241.431 258.7 239.739 259.749 239.136C260.811 238.519 262.621 238.847 263.565 238.074C264.497 237.3 264.365 235.595 265.152 234.69C265.939 233.798 267.802 233.523 268.418 232.526C269.021 231.53 268.339 230.022 268.68 228.92C269.218 227.189 271.329 226.874 271.329 225.563C271.329 224.212 269.9 224.291 269.9 222.94C269.9 221.589 271.329 221.511 271.329 220.16C271.329 218.809 269.9 218.875 269.9 217.524C269.9 216.173 271.329 215.728 271.329 214.364C271.329 213 269.795 212.882 269.533 211.911C269.284 210.915 270.241 209.459 269.743 208.554C269.257 207.663 267.461 207.558 266.765 206.758C266.097 205.984 266.372 204.318 265.519 203.663C264.693 203.02 262.936 203.532 261.978 203.007C261.047 202.509 260.719 200.883 259.683 200.515C258.673 200.161 257.139 201.119 256.037 200.896C254.975 200.673 254.162 199.23 253.021 199.152C251.932 199.073 250.712 200.371 249.571 200.424C248.43 200.476 247.211 199.309 246.122 199.493C244.994 199.689 244.168 201.224 243.106 201.551C242.004 201.892 240.47 201.079 239.46 201.538C238.41 202.01 238.096 203.676 237.164 204.266C236.207 204.882 234.45 204.555 233.623 205.276C232.771 206.023 233.059 207.649 232.377 208.489C231.682 209.354 229.886 209.643 229.4 210.587C228.915 211.544 229.872 212.908 229.61 213.918C229.361 214.928 227.813 215.19 227.813 216.554C227.813 217.904 229.243 218.206 229.243 219.57C229.243 220.934 227.813 220.999 227.813 222.35C227.813 223.701 229.243 223.635 229.243 224.986C229.243 226.337 227.813 226.402 227.813 227.753C227.813 229.064 229.925 229.156 230.463 230.835C230.804 231.91 230.109 233.484 230.725 234.415C231.341 235.359 233.204 235.438 233.991 236.251C234.778 237.064 234.633 238.795 235.578 239.477C236.509 240.146 238.332 239.634 239.394 240.146C240.443 240.657 240.955 242.283 242.109 242.611C243.25 242.939 244.797 241.89 246.004 242.021" stroke="black" stroke-width="1.5" stroke-miterlimit="10" stroke-linecap="round" stroke-linejoin="round"/>
<path d="M236.666 225.969C237.65 225.969 238.437 226.756 238.437 227.74V227.792C238.437 228.54 239.053 229.156 239.801 229.156C240.548 229.156 241.165 228.54 241.165 227.792V219.714C241.165 218.717 241.847 217.301 242.896 217.104C244.234 216.855 245.034 217.498 246.345 216.422C247.145 215.767 247.88 214.193 248.942 214.049C249.965 213.905 251.08 214.914 252.431 214.39C253.427 214.01 253.519 212.462 254.962 212.423C256.037 212.397 256.916 213.682 257.913 213.944C258.949 214.219 259.932 213.078 261.27 213.708C262.241 214.154 262.464 216.16 263.342 216.698C264.247 217.249 265.297 216.96 266.07 217.642C266.87 218.337 267.172 220.37 267.172 221.183V235.805C267.172 242.808 260.339 248.473 251.919 248.473C243.499 248.473 236.666 242.794 236.666 235.805V235.765C233.964 235.765 231.787 233.575 231.787 230.887C231.787 228.199 233.964 225.969 236.666 225.969Z" fill="white" stroke="black" stroke-width="1.5" stroke-miterlimit="10" stroke-linecap="round" stroke-linejoin="round"/>
<path d="M264.353 225.484C264.672 225.484 264.93 225.226 264.93 224.907C264.93 224.588 264.672 224.33 264.353 224.33C264.034 224.33 263.775 224.588 263.775 224.907C263.775 225.226 264.034 225.484 264.353 225.484Z" fill="white" stroke="black" stroke-width="1.5" stroke-miterlimit="10"/>
<path d="M250.582 225.484C250.901 225.484 251.159 225.226 251.159 224.907C251.159 224.588 250.901 224.33 250.582 224.33C250.263 224.33 250.004 224.588 250.004 224.907C250.004 225.226 250.263 225.484 250.582 225.484Z" fill="white" stroke="black" stroke-width="1.5" stroke-miterlimit="10"/>
<path d="M252.89 236.867C254.004 238.152 255.618 238.979 257.467 238.979C259.316 238.979 260.929 238.152 262.044 236.867" stroke="black" stroke-width="1.5" stroke-miterlimit="10" stroke-linecap="round" stroke-linejoin="round"/>
<path d="M257.467 232.107L260.457 230.376L257.624 227.543V225.13" stroke="black" stroke-width="1.5" stroke-miterlimit="10" stroke-linecap="round" stroke-linejoin="round"/>
<path d="M267.605 221.59C266.726 220.528 265.533 219.806 264.221 219.505" stroke="black" stroke-width="1.5" stroke-miterlimit="10" stroke-linecap="round" stroke-linejoin="round"/>
<path d="M247.329 221.59C248.208 220.528 249.401 219.806 250.713 219.505" stroke="black" stroke-width="1.5" stroke-miterlimit="10" stroke-linecap="round" stroke-linejoin="round"/>
<path d="M236.666 235.727C237.178 235.727 237.663 235.635 238.122 235.477" stroke="black" stroke-width="1.5" stroke-miterlimit="10" stroke-linecap="round" stroke-linejoin="round"/>
<path d="M236.273 223.478C236.273 213.551 240.351 206.076 249.729 204.266C256.168 203.02 267.185 204.791 267.185 216.462C267.185 209.04 260.483 205.551 250.411 206.745C241.715 207.781 236.273 213.538 236.273 223.478Z" fill="white" stroke="white" stroke-width="1.5" stroke-miterlimit="10" stroke-linecap="round" stroke-linejoin="round"/>
<path d="M236.666 232.658C237.666 232.658 238.476 231.848 238.476 230.848C238.476 229.849 237.666 229.038 236.666 229.038C235.667 229.038 234.856 229.849 234.856 230.848C234.856 231.848 235.667 232.658 236.666 232.658Z" fill="#A19F9A"/>
<path d="M236.391 233.93C238.03 233.93 239.355 235.923 239.355 238.388C239.355 240.854 238.03 242.847 236.391 242.847C234.751 242.847 233.427 240.854 233.427 238.388C233.427 237.667 233.545 236.985 233.741 236.382" stroke="black" stroke-width="1.5" stroke-miterlimit="10" stroke-linecap="round" stroke-linejoin="round"/>
<path d="M672.98 240.71L678.79 240.093C679.735 239.988 680.666 240.618 680.81 241.562C681.125 243.66 679.617 245.575 677.518 245.798L672.954 246.27C672.574 246.309 672.311 246.663 672.377 247.03C672.416 247.28 672.6 247.476 672.836 247.542L690.476 252.696C691.263 252.932 691.787 253.719 691.617 254.518C691.355 255.79 690.056 256.551 688.837 256.184L690.87 256.787C691.643 257.01 692.155 257.784 692.011 258.584C691.774 259.83 690.528 260.577 689.348 260.223L688.863 260.079C689.715 260.328 690.201 261.22 689.951 262.085C689.624 263.2 688.456 263.842 687.328 263.515L685.584 263.003C686.437 263.252 686.922 264.144 686.673 265.01C686.423 265.849 685.584 266.373 684.718 266.216L668.836 263.37C667.183 263.069 665.478 263.37 664.023 264.21L661.164 265.862L655.275 255.686L657.754 250.479C659.118 247.607 661.308 245.181 664.062 243.608C666.803 242.021 669.846 241.037 672.98 240.71Z" fill="white" stroke="black" stroke-width="1.5" stroke-miterlimit="10" stroke-linecap="round" stroke-linejoin="round"/>
<path d="M685.597 262.99L675.21 259.908" stroke="black" stroke-width="1.5" stroke-miterlimit="10" stroke-linecap="round" stroke-linejoin="round"/>
<path d="M677.23 256.63L688.863 260.079" stroke="black" stroke-width="1.5" stroke-miterlimit="10" stroke-linecap="round" stroke-linejoin="round"/>
<path d="M688.85 256.184L679.25 253.351" stroke="black" stroke-width="1.5" stroke-miterlimit="10" stroke-linecap="round" stroke-linejoin="round"/>
<path d="M656.03 250.431L648.082 255.025L656.812 270.124L664.76 265.53L656.03 250.431Z" fill="white" stroke="black" stroke-width="1.5" stroke-miterlimit="10" stroke-linejoin="round"/>
<path d="M648.114 254.991L635.3 262.452L625.634 243.11C623.431 238.703 619.523 235.399 614.828 233.943L591.089 227.753H581.187V316.691H610.972L612.637 314.16L610.5 262.623C610.893 261.207 612.834 261.023 613.49 262.334L622.211 279.776C624.979 285.31 631.34 286.7 636.048 284.353L654.317 273.901L656.862 270.085L648.114 254.991Z" fill="white" stroke="black" stroke-width="1.5" stroke-miterlimit="10" stroke-linejoin="round"/>
<path d="M635.3 262.453L632.336 264.184" stroke="black" stroke-width="1.5" stroke-miterlimit="10" stroke-linejoin="round"/>
<path d="M528.386 242.467L531.848 252.853L536.714 243.11C538.917 238.703 542.825 235.399 547.521 233.943L571.259 227.753H581.161V316.692H551.377L549.711 314.161L551.849 262.623C551.455 261.207 549.514 261.023 548.858 262.335L539.298 281.455C535.206 289.625 523.284 288.785 520.385 280.117L511.218 252.591L511.834 248.04L528.386 242.467Z" fill="white" stroke="black" stroke-width="1.5" stroke-miterlimit="10" stroke-linejoin="round"/>
<path d="M531.848 252.853L534.445 260.656" stroke="black" stroke-width="1.5" stroke-miterlimit="10" stroke-linecap="round" stroke-linejoin="round"/>
<path d="M519.14 215.322L515.179 211.02C514.536 210.312 513.421 210.181 512.687 210.797C511.061 212.174 510.929 214.6 512.359 216.148L515.48 219.518C515.743 219.793 515.703 220.239 515.415 220.475C515.218 220.633 514.956 220.659 514.733 220.554L498.09 212.777C497.342 212.436 496.437 212.686 496.031 213.394C495.388 214.522 495.86 215.951 497.014 216.489L495.099 215.597C494.365 215.256 493.473 215.492 493.053 216.187C492.411 217.275 492.857 218.652 493.972 219.177L494.431 219.387C493.617 219.02 492.673 219.361 492.293 220.174C491.794 221.236 492.253 222.482 493.316 222.98L494.968 223.741C494.155 223.373 493.211 223.714 492.831 224.527C492.463 225.327 492.752 226.272 493.499 226.731L507.31 235.084C508.752 235.95 509.828 237.3 510.365 238.887L511.428 242.021L522.563 238.271L524.136 232.737C525.002 229.681 524.963 226.416 523.94 223.413C522.904 220.383 521.277 217.643 519.14 215.322Z" fill="white" stroke="black" stroke-width="1.5" stroke-miterlimit="10" stroke-linecap="round" stroke-linejoin="round"/>
<path d="M494.955 223.714L504.778 228.265" stroke="black" stroke-width="1.5" stroke-miterlimit="10" stroke-linecap="round" stroke-linejoin="round"/>
<path d="M505.434 224.475L494.417 219.373" stroke="black" stroke-width="1.5" stroke-miterlimit="10" stroke-linecap="round" stroke-linejoin="round"/>
<path d="M497.001 216.462L506.077 220.672" stroke="black" stroke-width="1.5" stroke-miterlimit="10" stroke-linecap="round" stroke-linejoin="round"/>
<path d="M525.416 233.772L508.888 239.342L511.824 248.039L528.353 242.469L525.416 233.772Z" fill="white" stroke="black" stroke-width="1.5" stroke-miterlimit="10" stroke-linejoin="round"/>
<path d="M610.29 448.316H598.001L599.181 460.079H611.47L610.29 448.316Z" fill="white" stroke="black" stroke-width="1.5" stroke-miterlimit="10" stroke-linecap="round" stroke-linejoin="round"/>
<path d="M623.654 458.649L619.667 456.446C616.861 450.191 608.073 449.928 604.913 456.013L604.9 456.026C603.339 457.836 600.585 457.993 598.801 456.407L598.526 453.653C598.526 453.653 596.257 453.692 595.798 457.613L594.748 468.13C594.748 470.504 596.663 472.419 599.037 472.419H627.418C629.792 472.419 631.786 470.517 631.786 468.13C631.799 462.334 623.654 458.649 623.654 458.649Z" fill="white" stroke="black" stroke-width="1.5" stroke-miterlimit="10" stroke-linecap="round" stroke-linejoin="round"/>
<path d="M594.762 468.144H631.799" stroke="black" stroke-width="1.5" stroke-miterlimit="10" stroke-linecap="round" stroke-linejoin="round"/>
<path d="M541.344 445.365L554.655 447.503L551.377 462.78H538.642L541.344 445.365Z" fill="white" stroke="black" stroke-width="1.5" stroke-miterlimit="10" stroke-linecap="round" stroke-linejoin="round"/>
<path d="M553.344 453.666C553.344 453.666 555.888 453.705 556.347 457.626L557.396 468.144C557.396 470.517 555.482 472.432 553.108 472.432H519.73C517.356 472.432 515.441 470.517 515.441 468.144C515.441 461.324 523.572 458.649 523.572 458.649L533.75 453.613C536.924 449.037 543.822 449.469 546.393 454.413L547.022 455.633C548.15 457.534 550.839 458.518 552.636 456.931L553.344 453.666Z" fill="white" stroke="black" stroke-width="1.5" stroke-miterlimit="10" stroke-linecap="round" stroke-linejoin="round"/>
<path d="M557.383 468.144H515.428" stroke="black" stroke-width="1.5" stroke-miterlimit="10" stroke-linecap="round" stroke-linejoin="round"/>
<path d="M611.077 316.705L581.292 316.691H581.214L551.377 316.705L536.202 449.574L557.121 452.118L579.627 335.929C579.771 335.156 580.453 334.592 581.253 334.592C582.053 334.592 582.722 335.156 582.879 335.929L595.299 449.797L614.828 449.063L611.077 316.705Z" fill="black" stroke="black" stroke-width="1.5" stroke-miterlimit="10"/>
<path d="M602.801 259.909H588.742" stroke="black" stroke-width="1.5" stroke-miterlimit="10" stroke-linecap="round" stroke-linejoin="round"/>
<path d="M581.174 210.849L573.869 222.18V227.097C573.869 228.147 574.105 229.13 574.499 230.035L581.174 245.208L587.85 230.035C588.243 229.13 588.48 228.147 588.48 227.097V222.18L581.174 210.849Z" fill="white"/>
<path d="M581.174 210.849L573.869 222.18V227.097C573.869 228.147 574.105 229.13 574.499 230.035L581.174 245.208L587.85 230.035C588.243 229.13 588.48 228.147 588.48 227.097V222.18L581.174 210.849Z" stroke="black" stroke-width="1.5" stroke-miterlimit="10"/>
<path d="M573.869 227.097V224.894C571.469 225.458 570.538 227.163 570.184 228.527L567.482 237.995L574.289 235.739L577.843 237.615L574.512 230.035C574.092 229.143 573.869 228.147 573.869 227.097Z" fill="white" stroke="black" stroke-width="1.5" stroke-miterlimit="10"/>
<path d="M588.479 227.097V224.894C590.879 225.458 591.811 227.163 592.165 228.527L594.866 237.995L588.06 235.739L584.505 237.615L587.837 230.035C588.256 229.143 588.479 228.147 588.479 227.097Z" fill="white" stroke="black" stroke-width="1.5" stroke-miterlimit="10"/>
<path d="M594.67 259.908H591.404V251.974C591.404 251.07 592.139 250.335 593.043 250.335C593.948 250.335 594.683 251.07 594.683 251.974V259.908H594.67Z" fill="white" stroke="black" stroke-width="1.5" stroke-miterlimit="10" stroke-linecap="round" stroke-linejoin="round"/>
<path d="M594.67 267.161V259.909" stroke="black" stroke-width="1.5" stroke-miterlimit="10" stroke-linecap="round" stroke-linejoin="round"/>
<path d="M567.062 181.028C568.623 174.34 572.413 172.163 581.292 174.485C581.292 174.485 602.368 179.442 602.368 194.536V201.014C602.368 211.689 593.712 220.357 583.024 220.357C572.335 220.357 563.679 211.702 563.679 201.014C563.679 201.014 563.679 196.254 563.679 193.565C563.679 189.946 559.351 184.858 567.062 181.028Z" fill="black" stroke="black" stroke-width="1.5" stroke-miterlimit="10" stroke-linecap="round" stroke-linejoin="round"/>
<path d="M589.686 194.221V204.332C589.686 205.079 590.302 205.696 591.05 205.696C591.798 205.696 592.414 205.079 592.414 204.332V204.279C592.414 203.309 593.201 202.509 594.185 202.509H594.198C596.899 202.509 599.076 204.699 599.076 207.387C599.076 210.076 596.886 212.266 594.198 212.266V212.305C594.198 219.308 587.365 224.973 578.945 224.973C570.525 224.973 563.692 219.295 563.692 212.305V196.844C563.692 183.35 568.295 191.559 573.581 190.077C580.676 188.097 589.686 186.327 589.686 194.221Z" fill="white" stroke="black" stroke-width="1.5" stroke-miterlimit="10" stroke-linecap="round" stroke-linejoin="round"/>
<path d="M594.185 205.578C595.181 205.578 595.994 206.391 595.994 207.388" stroke="black" stroke-width="1.5" stroke-miterlimit="10" stroke-linecap="round" stroke-linejoin="round"/>
<path d="M566.499 202.024C566.818 202.024 567.076 201.766 567.076 201.447C567.076 201.128 566.818 200.87 566.499 200.87C566.18 200.87 565.921 201.128 565.921 201.447C565.921 201.766 566.18 202.024 566.499 202.024Z" fill="white" stroke="black" stroke-width="1.5" stroke-miterlimit="10"/>
<path d="M580.27 202.024C580.589 202.024 580.847 201.766 580.847 201.447C580.847 201.128 580.589 200.87 580.27 200.87C579.951 200.87 579.692 201.128 579.692 201.447C579.692 201.766 579.951 202.024 580.27 202.024Z" fill="white" stroke="black" stroke-width="1.5" stroke-miterlimit="10"/>
<path d="M577.974 213.42C576.859 214.705 575.246 215.531 573.397 215.531C571.548 215.531 569.935 214.705 568.82 213.42" stroke="black" stroke-width="1.5" stroke-miterlimit="10" stroke-linecap="round" stroke-linejoin="round"/>
<path d="M573.397 208.646L570.393 206.915L573.239 204.082V201.669" stroke="black" stroke-width="1.5" stroke-miterlimit="10" stroke-linecap="round" stroke-linejoin="round"/>
<path d="M563.246 198.129C564.125 197.067 565.318 196.345 566.63 196.044" stroke="black" stroke-width="1.5" stroke-miterlimit="10" stroke-linecap="round" stroke-linejoin="round"/>
<path d="M583.522 198.129C582.643 197.067 581.45 196.345 580.138 196.044" stroke="black" stroke-width="1.5" stroke-miterlimit="10" stroke-linecap="round" stroke-linejoin="round"/>
<path d="M594.184 212.279C593.673 212.279 593.188 212.187 592.729 212.03" stroke="black" stroke-width="1.5" stroke-miterlimit="10" stroke-linecap="round" stroke-linejoin="round"/>
<path d="M412.109 226.56H419.572L442.418 232.749C447.114 234.205 451.022 237.51 453.225 241.916L463.219 277.101L448.228 278.766L443.074 268.459C442.392 267.095 440.333 267.685 440.464 269.193L441.959 316.691H412.096H382.246L383.741 269.193C383.872 267.672 381.813 267.095 381.131 268.459L375.977 278.766L362.73 272.052L370.993 241.903C373.196 237.497 377.105 234.192 381.8 232.736L404.647 226.547H412.109V226.56Z" fill="white" stroke="black" stroke-width="1.5" stroke-miterlimit="10"/>
<path d="M443.546 316.691L442.72 291.159C436.438 286.136 433.487 279.894 433.487 273.665V246.794H412.122H390.744V273.665C390.744 279.907 387.794 286.136 381.511 291.159L380.685 316.691H443.546Z" fill="black" stroke="black" stroke-width="1.5" stroke-miterlimit="10"/>
<path d="M467.652 447.476L455.468 449.142L458.471 461.429L470.655 459.764L467.652 447.476Z" fill="white" stroke="black" stroke-width="1.5" stroke-miterlimit="10" stroke-linecap="round" stroke-linejoin="round"/>
<path d="M486.931 459.318L478.065 456.459C475.259 450.204 466.471 449.942 463.311 456.026L463.298 456.04C461.737 457.849 459.035 458.007 457.251 456.42L456.596 453.732C456.596 453.732 454.655 453.705 454.209 457.639L453.16 468.157C453.16 470.53 455.074 472.445 457.448 472.445H491.207C493.58 472.445 495.574 470.543 495.574 468.157C495.561 461.692 486.931 459.318 486.931 459.318Z" fill="white" stroke="black" stroke-width="1.5" stroke-miterlimit="10" stroke-linecap="round" stroke-linejoin="round"/>
<path d="M453.16 468.143H495.561" stroke="black" stroke-width="1.5" stroke-miterlimit="10" stroke-linecap="round" stroke-linejoin="round"/>
<path d="M399.925 447.502H413.04L414.063 462.78H401.328L399.925 447.502Z" fill="white" stroke="black" stroke-width="1.5" stroke-miterlimit="10" stroke-linecap="round" stroke-linejoin="round"/>
<path d="M413.447 453.666C413.447 453.666 416.922 453.338 417.368 457.626L418.418 468.143C418.418 470.517 416.503 472.432 414.129 472.432H380.751C378.377 472.432 376.462 470.517 376.462 468.143C376.462 461.324 384.594 458.649 384.594 458.649L394.771 453.613C397.945 449.036 404.843 449.469 407.414 454.413L408.043 455.633C409.171 457.534 411.86 458.518 413.657 456.931L413.447 453.666Z" fill="white" stroke="black" stroke-width="1.5" stroke-miterlimit="10" stroke-linecap="round" stroke-linejoin="round"/>
<path d="M418.418 468.143H376.462" stroke="black" stroke-width="1.5" stroke-miterlimit="10" stroke-linecap="round" stroke-linejoin="round"/>
<path d="M443.546 316.704L408.948 316.691H408.87L380.685 316.704L394.613 447.515H418.063L411.466 335.929C411.611 335.156 412.293 334.592 413.093 334.592C413.893 334.592 414.562 335.156 414.719 335.929L449.894 449.876L474.537 446.558L443.546 316.704Z" fill="black" stroke="black" stroke-width="1.5" stroke-miterlimit="10"/>
<path d="M404.804 219.518L412.109 218.626L419.414 219.518V225.904C419.414 229.93 416.135 233.209 412.109 233.209C408.07 233.209 404.804 229.943 404.804 225.904V219.518Z" fill="white" stroke="black" stroke-width="1.5" stroke-miterlimit="10" stroke-linecap="round" stroke-linejoin="round"/>
<path d="M422.313 227.294C421.631 232.317 417.329 236.186 412.109 236.186C406.889 236.186 402.588 232.317 401.906 227.294" stroke="black" stroke-width="1.5" stroke-miterlimit="10" stroke-linecap="round" stroke-linejoin="round"/>
<path d="M423.742 227.688V253.876H430.011V229.366L423.742 227.688Z" fill="black" stroke="black" stroke-width="1.5" stroke-miterlimit="10"/>
<path d="M400.476 227.688V253.876H394.207V229.366L400.476 227.688Z" fill="black" stroke="black" stroke-width="1.5" stroke-miterlimit="10"/>
<path d="M426.247 179.861C424.687 173.173 420.896 170.996 412.017 173.318C412.017 173.318 390.941 178.275 390.941 193.369V199.847C390.941 210.522 399.597 219.19 410.286 219.19C420.975 219.19 429.631 210.535 429.631 199.847C429.631 199.847 429.631 195.087 429.631 192.398C429.631 188.779 433.959 183.691 426.247 179.861Z" fill="black" stroke="black" stroke-width="1.5" stroke-miterlimit="10" stroke-linecap="round" stroke-linejoin="round"/>
<path d="M403.624 193.067V203.178C403.624 203.926 403.007 204.542 402.26 204.542C401.512 204.542 400.896 203.926 400.896 203.178V203.126C400.896 202.155 400.109 201.355 399.125 201.355H399.112C396.41 201.355 394.233 203.545 394.233 206.234C394.233 208.922 396.423 211.112 399.112 211.112V211.151C399.112 218.154 405.945 223.819 414.365 223.819C422.785 223.819 429.618 218.141 429.618 211.151V195.69C429.618 182.196 425.014 190.405 419.729 188.923C412.634 186.93 403.624 185.16 403.624 193.067Z" fill="white" stroke="black" stroke-width="1.5" stroke-miterlimit="10" stroke-linecap="round" stroke-linejoin="round"/>
<path d="M399.125 208.043C400.125 208.043 400.935 207.233 400.935 206.233C400.935 205.234 400.125 204.424 399.125 204.424C398.126 204.424 397.315 205.234 397.315 206.233C397.315 207.233 398.126 208.043 399.125 208.043Z" fill="#A19F9A"/>
<path d="M426.812 200.87C427.131 200.87 427.389 200.611 427.389 200.293C427.389 199.974 427.131 199.716 426.812 199.716C426.493 199.716 426.234 199.974 426.234 200.293C426.234 200.611 426.493 200.87 426.812 200.87Z" fill="white" stroke="black" stroke-width="1.5" stroke-miterlimit="10"/>
<path d="M413.041 200.87C413.36 200.87 413.618 200.611 413.618 200.293C413.618 199.974 413.36 199.716 413.041 199.716C412.722 199.716 412.463 199.974 412.463 200.293C412.463 200.611 412.722 200.87 413.041 200.87Z" fill="white" stroke="black" stroke-width="1.5" stroke-miterlimit="10"/>
<path d="M427.534 250.48C427.534 250.795 427.271 251.057 426.956 251.057C426.641 251.057 426.379 250.795 426.379 250.48C426.379 250.165 426.641 249.903 426.956 249.903C427.271 249.903 427.534 250.165 427.534 250.48Z" fill="white" stroke="black" stroke-width="1.5" stroke-miterlimit="10"/>
<path d="M397.473 251.057C397.792 251.057 398.051 250.799 398.051 250.48C398.051 250.161 397.792 249.903 397.473 249.903C397.154 249.903 396.896 250.161 396.896 250.48C396.896 250.799 397.154 251.057 397.473 251.057Z" fill="white" stroke="black" stroke-width="1.5" stroke-miterlimit="10"/>
<path d="M415.335 212.252C416.45 213.538 418.063 214.364 419.913 214.364C421.762 214.364 423.375 213.538 424.49 212.252" stroke="black" stroke-width="1.5" stroke-miterlimit="10" stroke-linecap="round" stroke-linejoin="round"/>
<path d="M419.913 207.479L422.903 205.761L420.07 202.928V200.502" stroke="black" stroke-width="1.5" stroke-miterlimit="10" stroke-linecap="round" stroke-linejoin="round"/>
<path d="M409.788 196.962C410.666 195.9 411.86 195.178 413.171 194.877" stroke="black" stroke-width="1.5" stroke-miterlimit="10" stroke-linecap="round" stroke-linejoin="round"/>
<path d="M399.125 211.112C399.637 211.112 400.122 211.02 400.581 210.863" stroke="black" stroke-width="1.5" stroke-miterlimit="10" stroke-linecap="round" stroke-linejoin="round"/>
<path d="M410.784 171.455C409.329 171.455 407.886 172.295 407.545 172.295H407.361C407.283 172.295 407.217 172.216 407.217 172.098V171.901C407.217 168.321 408.371 166 410.771 166C413.171 166 414.325 168.321 414.325 171.901V172.098C414.325 172.203 414.26 172.295 414.181 172.295H413.998C413.683 172.308 412.24 171.455 410.784 171.455Z" fill="white" stroke="black" stroke-width="1.5" stroke-miterlimit="10" stroke-linecap="round" stroke-linejoin="round"/>
<path d="M431.113 189.487V189.775C431.113 177.33 424.542 169.252 410.797 169.252C397.053 169.252 390.482 177.33 390.482 189.775V191.231C390.482 193.46 393.367 193.145 396.213 193.145C399.899 193.145 411.847 187.729 420.608 187.729C426.877 187.716 431.113 189.487 431.113 189.487Z" fill="white" stroke="black" stroke-width="1.5" stroke-miterlimit="10" stroke-linecap="round" stroke-linejoin="round"/>
<path d="M396.2 193.132C399.886 193.132 411.834 187.716 420.595 187.716C426.877 187.716 431.113 189.487 431.113 189.487L439.874 197.053C440.294 197.473 439.769 197.748 439.139 197.303C438.51 196.857 431.178 193.775 424.857 195.362C417.906 197.093 409.919 201.092 405.473 201.092C402.968 201.092 401.761 199.558 401.761 199.558L396.2 193.132Z" fill="white" stroke="black" stroke-width="1.5" stroke-miterlimit="10" stroke-linecap="round" stroke-linejoin="round"/>
<path d="M375.242 259.843C375.072 259.213 375.583 258.597 376.226 258.649L378.783 258.833L382.206 259.069C380.751 258.964 379.583 257.98 379.177 256.669C378.98 256.053 379.505 255.436 380.16 255.489L387.846 256.026C388.607 256.079 389.354 256.289 390.023 256.63L399.807 261.626C401.132 262.295 402.378 263.108 403.519 264.052L407.584 267.383L414.26 267.672L407.833 281.021L401.158 280.733L395.361 275.999L383.479 270.006L382.744 269.953C381.642 269.875 380.396 269.599 379.478 268.314C378.993 267.645 379.518 266.544 380.344 266.557C379.216 266.478 378.141 265.914 377.419 265.088C376.554 264.105 377.314 262.557 378.626 262.636C376.987 262.505 375.649 261.351 375.242 259.843Z" fill="white" stroke="black" stroke-width="1.5" stroke-miterlimit="10" stroke-linecap="round" stroke-linejoin="round"/>
<path d="M390.744 261.102L387.492 259.436L382.206 259.069" stroke="black" stroke-width="1.5" stroke-miterlimit="10" stroke-linecap="round" stroke-linejoin="round"/>
<path d="M390.246 265.363L385.879 263.134L378.639 262.623" stroke="black" stroke-width="1.5" stroke-miterlimit="10" stroke-linecap="round" stroke-linejoin="round"/>
<path d="M391.479 270.504L384.266 266.832L380.357 266.544" stroke="black" stroke-width="1.5" stroke-miterlimit="10" stroke-linecap="round" stroke-linejoin="round"/>
<path d="M463.232 277.101C465.96 287.251 457.605 292.562 452.32 291.565L414.522 284.772L410.85 282.018L401.827 280.327L405.04 263.187L450.602 271.711" fill="white"/>
<path d="M463.232 277.101C465.96 287.251 457.605 292.562 452.32 291.565L414.522 284.772L410.85 282.018L401.827 280.327L405.04 263.187L450.602 271.711" stroke="black" stroke-width="1.5" stroke-miterlimit="10" stroke-linecap="round" stroke-linejoin="round"/>
<path d="M426.077 261.206L434.667 258.728C435.27 258.557 435.913 258.57 436.503 258.793L443.69 261.39C443.192 263.003 441.448 263.868 439.847 263.291L447.402 266.019C446.812 267.894 444.792 268.904 442.943 268.235L436.883 266.045L433.723 266.963L444.477 270.858C444.057 272.222 442.575 272.956 441.238 272.471L433.854 269.796L429.014 271.199L439.454 274.976C439.034 276.3 437.631 277.048 436.293 276.628L429.578 274.504C428.713 274.228 427.795 274.438 427.086 275.015C424.87 276.838 421.919 277.507 419.139 276.812L416.87 276.248L415.099 266.373L416.135 265.704C419.244 263.724 422.575 262.216 426.077 261.206Z" fill="white" stroke="black" stroke-width="1.5" stroke-miterlimit="10" stroke-linecap="round" stroke-linejoin="round"/>
<path d="M433.736 266.95L432.398 266.465" stroke="black" stroke-width="1.5" stroke-miterlimit="10" stroke-linecap="round" stroke-linejoin="round"/>
<path d="M439.861 263.292L436.661 262.125L432.713 263.265" stroke="black" stroke-width="1.5" stroke-miterlimit="10" stroke-linecap="round" stroke-linejoin="round"/>
<path d="M368.868 271.724L414.614 263.527L417.683 280.693L408.647 282.306L404.961 285.034L372.304 290.883C367.006 291.827 361.957 288.313 360.999 283.015C360.816 281.952 360.697 280.615 360.842 279.605L362.743 272.051" fill="white"/>
<path d="M368.868 271.724L414.614 263.527L417.683 280.693L408.647 282.306L404.961 285.034L372.304 290.883C367.006 291.827 361.957 288.313 360.999 283.015C360.816 281.952 360.697 280.615 360.842 279.605L362.743 272.051" stroke="black" stroke-width="1.5" stroke-miterlimit="10" stroke-linecap="round" stroke-linejoin="round"/>
<path d="M408.66 282.306L405.578 265.153" stroke="black" stroke-width="1.5" stroke-miterlimit="10" stroke-linejoin="round"/>
<path d="M730.392 479.077H713.775C713.775 482.08 710.274 486.106 710.274 495.588C710.274 497.961 712.188 499.876 714.562 499.876H745.986C748.36 499.876 750.275 497.961 750.275 495.588C750.275 489.018 743.809 485.582 739.206 483.182L730.392 479.077Z" fill="white" stroke="black" stroke-width="1.5" stroke-miterlimit="10"/>
<path d="M723.494 219.908L724.74 234.478C725.264 240.602 720.451 246.149 713.592 247.893L713.867 251.054C713.998 252.575 710.838 254.096 706.824 254.437C702.798 254.778 699.441 253.821 699.309 252.3L698.68 244.93C698.68 244.93 692.752 242.267 692.385 238.019L691.099 222.898C689.893 208.866 722.563 208.906 723.494 219.908Z" fill="white" stroke="black" stroke-width="1.5" stroke-miterlimit="10" stroke-linecap="round" stroke-linejoin="round"/>
<path d="M724.976 212.761C724.858 211.397 723.651 211.607 723.31 210.662C722.956 209.692 720.792 206.505 720.005 205.771C719.245 205.063 719.389 203.384 718.458 202.794C717.553 202.23 715.769 202.886 714.72 202.453C713.71 202.034 713.238 200.447 712.123 200.171C711.048 199.909 709.526 200.998 708.372 200.88C707.244 200.762 706.274 199.385 705.093 199.411C703.952 199.424 702.798 200.827 701.618 200.984C700.437 201.142 699.073 200.08 697.945 200.368C696.791 200.67 696.07 202.256 694.995 202.676C693.88 203.109 692.214 202.44 691.204 202.991C690.155 203.555 689.971 205.233 689.053 205.915C688.109 206.61 686.26 206.44 685.46 207.24C684.647 208.053 685.066 209.653 684.45 210.558C683.807 211.476 681.958 211.921 681.538 212.905C681.106 213.902 682.22 215.174 682.037 216.21C681.866 217.233 680.279 217.639 680.397 219.003C680.515 220.354 682.024 220.524 682.129 221.875C682.247 223.226 680.765 223.422 680.883 224.773C681.001 226.124 682.47 225.927 682.588 227.265C682.706 228.615 681.224 228.812 681.342 230.15L681.355 230.307C681.473 231.658 682.942 231.461 683.06 232.799C683.178 234.149 681.696 234.346 681.814 235.684C681.919 236.995 684.122 236.89 684.817 238.516C685.263 239.552 684.699 240.851 685.316 241.624C685.945 242.398 687.637 242.319 688.411 242.975C689.185 243.631 689.185 245.139 690.09 245.663C690.981 246.175 692.594 245.585 693.591 245.952C694.588 246.306 695.165 247.696 696.24 247.893C697.29 248.089 698.627 247.053 699.742 247.08C700.896 247.067 702.549 248.194 703.651 248.05C704.949 247.88 705.579 246.122 706.483 245.834C707.415 245.493 708.647 245.768 709.5 245.257C710.366 244.732 710.654 243.539 711.428 242.857C712.202 242.175 713.644 242.385 714.313 241.546C714.982 240.719 714.72 239.015 715.257 238.07C715.795 237.126 717.566 236.798 717.867 235.172C716.792 234.412 715.979 232.917 715.821 231.133C715.599 228.445 716.923 226.137 718.799 225.979C719.572 225.914 720.805 226.084 721.618 227.96C722.195 229.284 724.255 228.615 724.071 226.465L723.664 221.613C723.546 220.262 725.133 219.344 725.015 217.993C724.897 216.642 724.373 217.18 724.255 215.829C724.123 214.479 725.094 214.111 724.976 212.761Z" fill="black" stroke="black" stroke-width="1.5" stroke-miterlimit="10" stroke-linecap="round" stroke-linejoin="round"/>
<path d="M720.608 235.369C720.307 235.54 719.979 235.671 719.625 235.697C717.749 235.855 716.057 233.809 715.821 231.12C715.598 228.432 716.923 226.124 718.798 225.967C719.572 225.901 720.805 226.072 721.618 227.947" stroke="black" stroke-width="1.5" stroke-miterlimit="10" stroke-linecap="round" stroke-linejoin="round"/>
<path d="M718.025 231.094C717.907 229.783 718.562 228.642 719.48 228.576L718.025 231.094Z" fill="black"/>
<path d="M718.025 231.094C717.907 229.783 718.562 228.642 719.48 228.576" stroke="black" stroke-width="1.5" stroke-miterlimit="10" stroke-linecap="round" stroke-linejoin="round"/>
<path d="M706.221 251.014H713.553C715.599 251.499 716.582 252.811 717.041 254.03L739.468 262.266C743.639 263.8 747.403 266.252 750.498 269.452L766.695 286.251L750.891 302.984L738.157 291.261C736.924 290.133 734.943 291.025 734.983 292.703L735.743 326.786L706.221 342.811L676.699 326.786L677.46 292.703C677.499 291.038 675.505 290.133 674.286 291.261L661.551 302.984L645.747 286.251L661.944 269.452C665.026 266.252 668.804 263.8 672.974 262.266L695.401 254.03C695.86 252.811 696.844 251.499 698.89 251.014H706.221Z" fill="white" stroke="black" stroke-width="1.5" stroke-miterlimit="10"/>
<path d="M718.956 254.738L716.516 272.166L723.245 274.068L725.618 257.19L718.956 254.738Z" fill="black" stroke="black" stroke-width="1.5" stroke-miterlimit="10"/>
<path d="M693.552 254.738L696.004 272.166L689.263 274.068L686.889 257.19L693.552 254.738Z" fill="black" stroke="black" stroke-width="1.5" stroke-miterlimit="10"/>
<path d="M689.263 290.762V274.068L696.004 272.167H716.517L723.258 274.068V290.762C723.258 302.119 729.658 309.345 736.189 313.908L735.94 335.284L734.707 477.622H712.28L709.225 367.072C709.133 365.249 707.834 363.833 706.274 363.833C704.713 363.833 703.401 365.262 703.323 367.072L700.267 477.622H677.84L676.607 335.284L676.358 313.908C682.863 309.345 689.263 302.119 689.263 290.762Z" fill="black" stroke="black" stroke-width="1.5" stroke-miterlimit="10"/>
<path d="M728.399 314.472L733.107 317.449H734.065C736.202 317.449 738.209 318.275 739.953 319.534C741.068 320.334 742.393 320.767 743.77 320.767C745.304 320.767 746.8 320.216 747.98 319.219L759.482 308.23L752.832 300.965L764.282 288.848L773.515 294.867C778.617 300.309 780.82 308.912 772.964 315.403L746.419 332.491C745.436 335.166 741.567 339.559 735.927 339.559L736.045 327.337L733.055 323.665C732.648 323.088 731.468 322.498 730.773 322.432C728.058 322.17 726.117 320.032 726.117 317.462V315.757C726.091 314.564 727.389 313.843 728.399 314.472Z" fill="white" stroke="black" stroke-width="1.5" stroke-miterlimit="10"/>
<path d="M766.695 286.251L750.891 302.984" stroke="black" stroke-width="1.5" stroke-miterlimit="10"/>
<path d="M775.876 292.572L756.872 310.708L749.777 304.178L768.217 284.651L775.876 292.572Z" fill="white" stroke="black" stroke-width="1.5" stroke-miterlimit="10"/>
<path d="M684.109 314.472L679.401 317.449H678.443C676.305 317.449 674.299 318.275 672.555 319.534C671.44 320.334 670.115 320.767 668.738 320.767C667.204 320.767 665.708 320.216 664.528 319.219L653.026 308.23L659.675 300.965L648.226 288.848L638.993 294.867C633.891 300.309 631.688 308.912 639.544 315.403L666.089 332.491C667.072 335.166 670.941 339.559 676.581 339.559L676.463 327.337L679.453 323.665C679.86 323.088 681.04 322.498 681.735 322.432C684.45 322.17 686.391 320.032 686.391 317.462V315.757C686.417 314.564 685.119 313.843 684.109 314.472Z" fill="white" stroke="black" stroke-width="1.5" stroke-miterlimit="10"/>
<path d="M636.632 292.572L655.649 310.708L662.731 304.178L644.291 284.651L636.632 292.572Z" fill="white" stroke="black" stroke-width="1.5" stroke-miterlimit="10"/>
<path d="M735.927 466.632H711.1V479.077H735.927V466.632Z" fill="white" stroke="black" stroke-width="1.5" stroke-miterlimit="10"/>
<path d="M722.077 219.475L728.386 217.731C730.865 216.97 730.642 214.767 728.95 213.023C727.245 211.266 723.992 208.997 718.969 209.351L722.077 219.475Z" fill="white" stroke="black" stroke-width="1.5" stroke-miterlimit="10"/>
<path d="M680.358 226.399L679.925 221.364C678.679 206.702 686.706 195.792 700.319 194.638C715.546 193.339 722.471 201.772 723.638 215.541L723.704 216.328C724.097 220.918 718.274 228.367 702.719 229.691C688.503 230.897 680.555 228.786 680.358 226.399Z" fill="white" stroke="black" stroke-width="1.5" stroke-miterlimit="10"/>
<path d="M697.806 197.402C699.368 197.05 700.475 196.061 700.28 195.192C700.084 194.322 698.659 193.903 697.097 194.255C695.536 194.606 694.428 195.596 694.624 196.465C694.82 197.334 696.244 197.754 697.806 197.402Z" fill="white" stroke="black" stroke-width="1.5" stroke-miterlimit="10"/>
<path d="M682.168 479.077H698.785C698.785 482.08 702.287 486.106 702.287 495.588C702.287 497.961 700.372 499.876 697.998 499.876H666.574C664.2 499.876 662.285 497.961 662.285 495.588C662.285 489.018 668.751 485.582 673.355 483.182L682.168 479.077Z" fill="white" stroke="black" stroke-width="1.5" stroke-miterlimit="10"/>
<path d="M701.447 466.632H676.62V479.077H701.447V466.632Z" fill="white" stroke="black" stroke-width="1.5" stroke-miterlimit="10"/>
<path d="M662.285 495.588H702.274" stroke="black" stroke-width="1.5" stroke-miterlimit="10"/>
<path d="M750.275 495.588H710.287" stroke="black" stroke-width="1.5" stroke-miterlimit="10"/>
<mask id="path-250-inside-1_1637_65095" fill="white">
<path fill-rule="evenodd" clip-rule="evenodd" d="M-156.966 317.107L-182.998 304.91V270.129L-175.051 261.287V224.503C-175.051 217.761 -172.432 210.607 -165.636 203.938L-125.245 164.585C-120.726 160.196 -112.676 160 -112.676 160L4.35432 164.013C14.447 164.867 19.3381 165.43 25.9576 172.267L79.9925 223.024L80.5246 223.198L125.527 201.338C128.101 200.272 148.655 192.173 161.681 196.684C164.08 197.505 165.35 200.133 164.521 202.535C164.104 203.729 163.246 204.644 162.184 205.151C161.129 205.678 159.875 205.784 158.682 205.371C150.367 202.495 134.631 207.537 129.27 209.723L93.1058 227.294L148.353 245.281C162.017 249.886 164.747 260.363 164.747 260.363L170.672 284.41H177.238V317.912H135.094C133.835 290.392 111.141 268.47 83.3022 268.47C54.6544 268.47 31.4371 291.671 31.4371 320.315H-53.3539C-53.3539 291.671 -76.559 268.47 -105.211 268.47C-132.78 268.47 -155.303 289.963 -156.966 317.107Z"/>
</mask>
<path fill-rule="evenodd" clip-rule="evenodd" d="M-156.966 317.107L-182.998 304.91V270.129L-175.051 261.287V224.503C-175.051 217.761 -172.432 210.607 -165.636 203.938L-125.245 164.585C-120.726 160.196 -112.676 160 -112.676 160L4.35432 164.013C14.447 164.867 19.3381 165.43 25.9576 172.267L79.9925 223.024L80.5246 223.198L125.527 201.338C128.101 200.272 148.655 192.173 161.681 196.684C164.08 197.505 165.35 200.133 164.521 202.535C164.104 203.729 163.246 204.644 162.184 205.151C161.129 205.678 159.875 205.784 158.682 205.371C150.367 202.495 134.631 207.537 129.27 209.723L93.1058 227.294L148.353 245.281C162.017 249.886 164.747 260.363 164.747 260.363L170.672 284.41H177.238V317.912H135.094C133.835 290.392 111.141 268.47 83.3022 268.47C54.6544 268.47 31.4371 291.671 31.4371 320.315H-53.3539C-53.3539 291.671 -76.559 268.47 -105.211 268.47C-132.78 268.47 -155.303 289.963 -156.966 317.107Z" fill="white"/>
<path d="M-182.998 304.91H-184.998V306.182L-183.847 306.721L-182.998 304.91ZM-156.966 317.107L-157.814 318.918L-155.149 320.167L-154.969 317.229L-156.966 317.107ZM-182.998 270.129L-184.486 268.792L-184.998 269.362V270.129H-182.998ZM-175.051 261.287L-173.563 262.624L-173.051 262.053V261.287H-175.051ZM-165.636 203.938L-167.032 202.506L-167.037 202.511L-165.636 203.938ZM-125.245 164.585L-126.638 163.15L-126.641 163.152L-125.245 164.585ZM-112.676 160L-112.608 158.001L-112.666 157.999L-112.725 158.001L-112.676 160ZM4.35432 164.013L4.52295 162.02L4.47298 162.015L4.42285 162.014L4.35432 164.013ZM25.9576 172.267L24.5208 173.658L24.5538 173.692L24.5883 173.724L25.9576 172.267ZM79.9925 223.024L78.6231 224.482L78.9486 224.788L79.3733 224.926L79.9925 223.024ZM80.5246 223.198L79.9054 225.099L80.6726 225.349L81.3984 224.997L80.5246 223.198ZM125.527 201.338L124.762 199.491L124.707 199.513L124.653 199.539L125.527 201.338ZM161.681 196.684L161.027 198.574L161.033 198.576L161.681 196.684ZM164.521 202.535L166.409 203.195L166.411 203.188L164.521 202.535ZM162.184 205.151L161.323 203.345L161.306 203.353L161.289 203.362L162.184 205.151ZM158.682 205.371L158.028 207.261L158.028 207.261L158.682 205.371ZM129.27 209.723L128.515 207.871L128.455 207.896L128.396 207.924L129.27 209.723ZM93.1058 227.294L92.2318 225.495L87.7735 227.661L92.4866 229.196L93.1058 227.294ZM148.353 245.281L148.992 243.386L148.982 243.383L148.972 243.38L148.353 245.281ZM164.747 260.363L166.689 259.885L166.685 259.872L166.682 259.859L164.747 260.363ZM170.672 284.41L168.73 284.889L169.105 286.41H170.672V284.41ZM177.238 284.41H179.238V282.41H177.238V284.41ZM177.238 317.912V319.912H179.238V317.912H177.238ZM135.094 317.912L133.096 318.003L133.183 319.912H135.094V317.912ZM31.4371 320.315V322.315H33.4371V320.315H31.4371ZM-53.3539 320.315H-55.3539V322.315H-53.3539V320.315ZM-183.847 306.721L-157.814 318.918L-156.117 315.296L-182.15 303.099L-183.847 306.721ZM-184.998 270.129V304.91H-180.998V270.129H-184.998ZM-176.538 259.95L-184.486 268.792L-181.511 271.466L-173.563 262.624L-176.538 259.95ZM-177.051 224.503V261.287H-173.051V224.503H-177.051ZM-167.037 202.511C-174.19 209.53 -177.051 217.19 -177.051 224.503H-173.051C-173.051 218.333 -170.673 211.683 -164.236 205.365L-167.037 202.511ZM-126.641 163.152L-167.032 202.506L-164.241 205.371L-123.849 166.017L-126.641 163.152ZM-112.676 160C-112.725 158.001 -112.725 158.001 -112.726 158.001C-112.726 158.001 -112.727 158.001 -112.727 158.001C-112.728 158.001 -112.729 158.001 -112.731 158.001C-112.733 158.001 -112.736 158.001 -112.739 158.001C-112.746 158.001 -112.755 158.001 -112.765 158.002C-112.786 158.002 -112.815 158.004 -112.851 158.005C-112.923 158.008 -113.025 158.013 -113.152 158.021C-113.408 158.036 -113.769 158.063 -114.214 158.11C-115.101 158.204 -116.332 158.377 -117.718 158.698C-120.436 159.329 -123.995 160.583 -126.638 163.15L-123.852 166.019C-121.976 164.198 -119.251 163.16 -116.814 162.595C-115.622 162.319 -114.558 162.169 -113.795 162.088C-113.415 162.048 -113.112 162.026 -112.909 162.013C-112.808 162.007 -112.732 162.004 -112.684 162.002C-112.66 162.001 -112.643 162 -112.634 162C-112.629 161.999 -112.626 161.999 -112.625 161.999C-112.624 161.999 -112.624 161.999 -112.625 161.999C-112.625 161.999 -112.625 161.999 -112.626 161.999C-112.626 161.999 -112.626 161.999 -112.627 161.999C-112.627 161.999 -112.627 161.999 -112.676 160ZM4.42285 162.014L-112.608 158.001L-112.745 161.999L4.2858 166.011L4.42285 162.014ZM27.3944 170.875C23.9108 167.278 20.7685 165.223 17.09 163.999C13.5108 162.807 9.51552 162.442 4.52295 162.02L4.1857 166.005C9.28584 166.437 12.7825 166.781 15.8269 167.794C18.7719 168.774 21.3849 170.419 24.5208 173.658L27.3944 170.875ZM81.3618 221.567L27.327 170.809L24.5883 173.724L78.6231 224.482L81.3618 221.567ZM81.1438 221.296L80.6116 221.123L79.3733 224.926L79.9054 225.099L81.1438 221.296ZM124.653 199.539L79.6508 221.399L81.3984 224.997L126.401 203.137L124.653 199.539ZM162.336 194.794C155.267 192.346 146.404 193.359 139.246 194.968C132.004 196.597 126.106 198.933 124.762 199.491L126.293 203.186C127.522 202.677 133.188 200.431 140.123 198.871C147.142 197.292 155.069 196.511 161.027 198.574L162.336 194.794ZM166.411 203.188C167.599 199.75 165.784 195.975 162.329 194.792L161.033 198.576C162.375 199.036 163.102 200.516 162.63 201.883L166.411 203.188ZM163.045 206.956C164.576 206.225 165.812 204.904 166.409 203.195L162.633 201.876C162.396 202.553 161.916 203.062 161.323 203.345L163.045 206.956ZM158.028 207.261C159.739 207.853 161.551 207.703 163.078 206.939L161.289 203.362C160.708 203.652 160.011 203.715 159.336 203.481L158.028 207.261ZM130.025 211.575C132.608 210.521 137.766 208.753 143.276 207.607C148.89 206.438 154.428 206.016 158.028 207.261L159.336 203.481C154.621 201.85 148.133 202.51 142.461 203.69C136.683 204.893 131.293 206.738 128.515 207.871L130.025 211.575ZM93.9798 229.093L130.144 211.522L128.396 207.924L92.2318 225.495L93.9798 229.093ZM148.972 243.38L93.725 225.392L92.4866 229.196L147.734 247.183L148.972 243.38ZM164.747 260.363C166.682 259.859 166.682 259.858 166.682 259.857C166.681 259.856 166.681 259.855 166.681 259.854C166.68 259.853 166.68 259.851 166.679 259.849C166.678 259.845 166.677 259.84 166.676 259.834C166.673 259.824 166.669 259.81 166.665 259.795C166.656 259.763 166.644 259.721 166.629 259.67C166.598 259.569 166.554 259.429 166.495 259.255C166.376 258.909 166.194 258.426 165.934 257.841C165.413 256.671 164.572 255.085 163.275 253.351C160.669 249.868 156.249 245.832 148.992 243.386L147.714 247.177C154.122 249.336 157.898 252.841 160.073 255.747C161.166 257.208 161.862 258.529 162.28 259.468C162.488 259.937 162.627 260.309 162.711 260.553C162.753 260.675 162.781 260.765 162.797 260.818C162.805 260.845 162.81 260.863 162.812 260.872C162.813 260.876 162.814 260.878 162.814 260.877C162.814 260.877 162.813 260.876 162.813 260.874C162.813 260.873 162.813 260.872 162.812 260.871C162.812 260.871 162.812 260.87 162.812 260.869C162.812 260.868 162.811 260.867 164.747 260.363ZM172.614 283.932L166.689 259.885L162.805 260.842L168.73 284.889L172.614 283.932ZM177.238 282.41H170.672V286.41H177.238V282.41ZM179.238 317.912V284.41H175.238V317.912H179.238ZM135.094 319.912H177.238V315.912H135.094V319.912ZM83.3022 270.47C110.067 270.47 131.886 291.546 133.096 318.003L137.092 317.821C135.785 289.238 112.215 266.47 83.3022 266.47V270.47ZM33.4371 320.315C33.4371 292.777 55.7581 270.47 83.3022 270.47V266.47C53.5508 266.47 29.4371 290.566 29.4371 320.315H33.4371ZM-53.3539 322.315H31.4371V318.315H-53.3539V322.315ZM-105.211 270.47C-77.6632 270.47 -55.3539 292.776 -55.3539 320.315H-51.3539C-51.3539 290.566 -75.4548 266.47 -105.211 266.47V270.47ZM-154.969 317.229C-153.371 291.134 -131.716 270.47 -105.211 270.47V266.47C-133.844 266.47 -157.235 288.793 -158.962 316.985L-154.969 317.229Z" fill="black" mask="url(#path-250-inside-1_1637_65095)"/>
<path d="M30.4473 319.312C30.6898 306.316 35.6504 294.486 43.6562 285.412H-65.5693C-57.5638 294.486 -52.6076 306.316 -52.3652 319.312H30.4473Z" fill="#A19F9A" stroke="black" stroke-width="2"/>
<path d="M176.238 316.909V285.411H122.913C130.426 293.922 135.27 304.853 136.038 316.909H176.238Z" fill="#A19F9A" stroke="black" stroke-width="2"/>
<mask id="path-254-inside-2_1637_65095" fill="white">
<path d="M65.9249 320.312C65.9249 310.722 73.709 302.946 83.2991 302.946C92.8933 302.946 100.669 310.722 100.669 320.312C100.669 329.914 92.8933 337.686 83.2991 337.686C73.709 337.686 65.9249 329.914 65.9249 320.312ZM43.627 320.312C43.627 342.226 61.3811 360 83.2991 360C105.209 360 122.963 342.226 122.963 320.312C122.963 298.415 105.209 280.64 83.2991 280.64C61.3811 280.64 43.627 298.415 43.627 320.312Z"/>
</mask>
<path d="M65.9249 320.312C65.9249 310.722 73.709 302.946 83.2991 302.946C92.8933 302.946 100.669 310.722 100.669 320.312C100.669 329.914 92.8933 337.686 83.2991 337.686C73.709 337.686 65.9249 329.914 65.9249 320.312ZM43.627 320.312C43.627 342.226 61.3811 360 83.2991 360C105.209 360 122.963 342.226 122.963 320.312C122.963 298.415 105.209 280.64 83.2991 280.64C61.3811 280.64 43.627 298.415 43.627 320.312Z" fill="black"/>
<path d="M63.9249 320.312C63.9249 309.616 72.6056 300.946 83.2991 300.946V304.946C74.8123 304.946 67.9249 311.828 67.9249 320.312H63.9249ZM83.2991 300.946C93.9975 300.946 102.669 309.617 102.669 320.312H98.6692C98.6692 311.827 91.789 304.946 83.2991 304.946V300.946ZM102.669 320.312C102.669 331.019 93.9978 339.686 83.2991 339.686V335.686C91.7887 335.686 98.6692 328.81 98.6692 320.312H102.669ZM83.2991 339.686C72.6053 339.686 63.9249 331.02 63.9249 320.312H67.9249C67.9249 328.809 74.8126 335.686 83.2991 335.686V339.686ZM45.627 320.312C45.627 341.123 62.4869 358 83.2991 358V362C60.2754 362 41.627 343.329 41.627 320.312H45.627ZM83.2991 358C104.103 358 120.963 341.123 120.963 320.312H124.963C124.963 343.329 106.315 362 83.2991 362V358ZM120.963 320.312C120.963 299.518 104.103 282.64 83.2991 282.64V278.64C106.314 278.64 124.963 297.311 124.963 320.312H120.963ZM83.2991 282.64C62.4864 282.64 45.627 299.518 45.627 320.312H41.627C41.627 297.311 60.2759 278.64 83.2991 278.64V282.64Z" fill="black" mask="url(#path-254-inside-2_1637_65095)"/>
<path d="M53.0137 217.053L20.373 186.389C20.3727 186.389 20.3721 186.388 20.3711 186.387C20.3688 186.385 20.3651 186.381 20.3594 186.376C20.3477 186.366 20.3283 186.35 20.3027 186.329C20.2513 186.285 20.172 186.218 20.0664 186.132C19.8552 185.961 19.5381 185.713 19.125 185.412C18.298 184.809 17.0885 183.998 15.5713 183.176C12.5297 181.529 8.29343 179.86 3.44336 179.693L-62.4727 177.445L-57.3379 223.122L45.5166 226.71L53.0137 217.053Z" fill="#E8E7E3" stroke="black" stroke-width="2"/>
<path d="M156.584 277.741C157.411 277.741 157.781 277.567 157.932 277.452C158.057 277.357 158.119 277.238 158.139 277.051C158.163 276.838 158.123 276.584 158.055 276.352C158.023 276.242 157.989 276.151 157.964 276.09C157.952 276.06 157.943 276.038 157.937 276.025C157.935 276.02 157.933 276.016 157.932 276.015L157.903 275.955L157.88 275.887L154.583 265.7C154.582 265.699 154.582 265.697 154.582 265.695C154.579 265.686 154.573 265.671 154.565 265.649C154.55 265.607 154.526 265.54 154.492 265.453C154.423 265.278 154.314 265.017 154.162 264.695C153.856 264.05 153.376 263.162 152.68 262.203C151.332 260.344 149.199 258.249 145.993 257.116L145.679 257.01L129.495 251.739L129.457 251.727L129.419 251.711C126.678 250.569 125.482 250.939 125.004 251.302C124.485 251.696 124.33 252.435 124.387 252.95L124.386 252.951C125.718 264.69 130.307 270.857 134.445 274.101C136.527 275.733 138.524 276.648 139.991 277.153C140.724 277.406 141.324 277.556 141.734 277.642C141.939 277.685 142.096 277.712 142.198 277.728C142.236 277.733 142.266 277.738 142.289 277.741H156.584Z" fill="#E8E7E3" stroke="black" stroke-width="2"/>
<mask id="path-258-inside-3_1637_65095" fill="white">
<path fill-rule="evenodd" clip-rule="evenodd" d="M890.034 315.107L864.002 302.91V268.129L871.949 259.287V222.503C871.949 215.761 874.568 208.607 881.364 201.938L921.755 162.585C926.274 158.196 934.324 158 934.324 158L1051.35 162.013C1061.45 162.867 1066.34 163.43 1072.96 170.267L1126.99 221.024L1127.52 221.198L1172.53 199.338C1175.1 198.272 1195.65 190.173 1208.68 194.684C1211.08 195.505 1212.35 198.133 1211.52 200.535C1211.1 201.729 1210.25 202.644 1209.18 203.151C1208.13 203.678 1206.88 203.784 1205.68 203.371C1197.37 200.495 1181.63 205.537 1176.27 207.723L1140.11 225.294L1195.35 243.281C1209.02 247.886 1211.75 258.363 1211.75 258.363L1217.67 282.41H1224.24V315.912H1182.09C1180.84 288.392 1158.14 266.47 1130.3 266.47C1101.65 266.47 1078.44 289.671 1078.44 318.315H993.646C993.646 289.671 970.441 266.47 941.789 266.47C914.22 266.47 891.697 287.963 890.034 315.107Z"/>
</mask>
<path fill-rule="evenodd" clip-rule="evenodd" d="M890.034 315.107L864.002 302.91V268.129L871.949 259.287V222.503C871.949 215.761 874.568 208.607 881.364 201.938L921.755 162.585C926.274 158.196 934.324 158 934.324 158L1051.35 162.013C1061.45 162.867 1066.34 163.43 1072.96 170.267L1126.99 221.024L1127.52 221.198L1172.53 199.338C1175.1 198.272 1195.65 190.173 1208.68 194.684C1211.08 195.505 1212.35 198.133 1211.52 200.535C1211.1 201.729 1210.25 202.644 1209.18 203.151C1208.13 203.678 1206.88 203.784 1205.68 203.371C1197.37 200.495 1181.63 205.537 1176.27 207.723L1140.11 225.294L1195.35 243.281C1209.02 247.886 1211.75 258.363 1211.75 258.363L1217.67 282.41H1224.24V315.912H1182.09C1180.84 288.392 1158.14 266.47 1130.3 266.47C1101.65 266.47 1078.44 289.671 1078.44 318.315H993.646C993.646 289.671 970.441 266.47 941.789 266.47C914.22 266.47 891.697 287.963 890.034 315.107Z" fill="white"/>
<path d="M864.002 302.91H862.002V304.182L863.153 304.721L864.002 302.91ZM890.034 315.107L889.186 316.918L891.851 318.167L892.031 315.229L890.034 315.107ZM864.002 268.129L862.514 266.792L862.002 267.362V268.129H864.002ZM871.949 259.287L873.437 260.624L873.949 260.053V259.287H871.949ZM881.364 201.938L879.968 200.506L879.963 200.511L881.364 201.938ZM921.755 162.585L920.362 161.15L920.359 161.152L921.755 162.585ZM934.324 158L934.392 156.001L934.334 155.999L934.275 156.001L934.324 158ZM1051.35 162.013L1051.52 160.02L1051.47 160.015L1051.42 160.014L1051.35 162.013ZM1072.96 170.267L1071.52 171.658L1071.55 171.692L1071.59 171.724L1072.96 170.267ZM1126.99 221.024L1125.62 222.482L1125.95 222.788L1126.37 222.926L1126.99 221.024ZM1127.52 221.198L1126.91 223.099L1127.67 223.349L1128.4 222.997L1127.52 221.198ZM1172.53 199.338L1171.76 197.491L1171.71 197.513L1171.65 197.539L1172.53 199.338ZM1208.68 194.684L1208.03 196.574L1208.03 196.576L1208.68 194.684ZM1211.52 200.535L1213.41 201.195L1213.41 201.188L1211.52 200.535ZM1209.18 203.151L1208.32 201.345L1208.31 201.353L1208.29 201.362L1209.18 203.151ZM1205.68 203.371L1205.03 205.261L1205.03 205.261L1205.68 203.371ZM1176.27 207.723L1175.51 205.871L1175.45 205.896L1175.4 205.924L1176.27 207.723ZM1140.11 225.294L1139.23 223.495L1134.77 225.661L1139.49 227.196L1140.11 225.294ZM1195.35 243.281L1195.99 241.386L1195.98 241.383L1195.97 241.38L1195.35 243.281ZM1211.75 258.363L1213.69 257.885L1213.69 257.872L1213.68 257.859L1211.75 258.363ZM1217.67 282.41L1215.73 282.889L1216.1 284.41H1217.67V282.41ZM1224.24 282.41H1226.24V280.41H1224.24V282.41ZM1224.24 315.912V317.912H1226.24V315.912H1224.24ZM1182.09 315.912L1180.1 316.003L1180.18 317.912H1182.09V315.912ZM1078.44 318.315V320.315H1080.44V318.315H1078.44ZM993.646 318.315H991.646V320.315H993.646V318.315ZM863.153 304.721L889.186 316.918L890.883 313.296L864.85 301.099L863.153 304.721ZM862.002 268.129V302.91H866.002V268.129H862.002ZM870.462 257.95L862.514 266.792L865.489 269.466L873.437 260.624L870.462 257.95ZM869.949 222.503V259.287H873.949V222.503H869.949ZM879.963 200.511C872.81 207.53 869.949 215.19 869.949 222.503H873.949C873.949 216.333 876.327 209.683 882.764 203.365L879.963 200.511ZM920.359 161.152L879.968 200.506L882.759 203.371L923.151 164.017L920.359 161.152ZM934.324 158C934.275 156.001 934.275 156.001 934.274 156.001C934.274 156.001 934.273 156.001 934.273 156.001C934.272 156.001 934.271 156.001 934.269 156.001C934.267 156.001 934.264 156.001 934.261 156.001C934.254 156.001 934.245 156.001 934.235 156.002C934.214 156.002 934.185 156.004 934.149 156.005C934.077 156.008 933.975 156.013 933.848 156.021C933.592 156.036 933.231 156.063 932.786 156.11C931.899 156.204 930.668 156.377 929.282 156.698C926.564 157.329 923.005 158.583 920.362 161.15L923.148 164.019C925.024 162.198 927.749 161.16 930.186 160.595C931.378 160.319 932.442 160.169 933.205 160.088C933.585 160.048 933.888 160.026 934.091 160.013C934.192 160.007 934.268 160.004 934.316 160.002C934.34 160.001 934.357 160 934.366 160C934.371 159.999 934.374 159.999 934.375 159.999C934.376 159.999 934.376 159.999 934.375 159.999C934.375 159.999 934.375 159.999 934.374 159.999C934.374 159.999 934.374 159.999 934.373 159.999C934.373 159.999 934.373 159.999 934.324 158ZM1051.42 160.014L934.392 156.001L934.255 159.999L1051.29 164.011L1051.42 160.014ZM1074.39 168.875C1070.91 165.278 1067.77 163.223 1064.09 161.999C1060.51 160.807 1056.52 160.442 1051.52 160.02L1051.19 164.005C1056.29 164.437 1059.78 164.781 1062.83 165.794C1065.77 166.774 1068.38 168.419 1071.52 171.658L1074.39 168.875ZM1128.36 219.567L1074.33 168.809L1071.59 171.724L1125.62 222.482L1128.36 219.567ZM1128.14 219.296L1127.61 219.123L1126.37 222.926L1126.91 223.099L1128.14 219.296ZM1171.65 197.539L1126.65 219.399L1128.4 222.997L1173.4 201.137L1171.65 197.539ZM1209.34 192.794C1202.27 190.346 1193.4 191.359 1186.25 192.968C1179 194.597 1173.11 196.933 1171.76 197.491L1173.29 201.186C1174.52 200.677 1180.19 198.431 1187.12 196.871C1194.14 195.292 1202.07 194.511 1208.03 196.574L1209.34 192.794ZM1213.41 201.188C1214.6 197.75 1212.78 193.975 1209.33 192.792L1208.03 196.576C1209.37 197.036 1210.1 198.516 1209.63 199.883L1213.41 201.188ZM1210.04 204.956C1211.58 204.225 1212.81 202.904 1213.41 201.195L1209.63 199.876C1209.4 200.553 1208.92 201.062 1208.32 201.345L1210.04 204.956ZM1205.03 205.261C1206.74 205.853 1208.55 205.703 1210.08 204.939L1208.29 201.362C1207.71 201.652 1207.01 201.715 1206.34 201.481L1205.03 205.261ZM1177.03 209.575C1179.61 208.521 1184.77 206.753 1190.28 205.607C1195.89 204.438 1201.43 204.016 1205.03 205.261L1206.34 201.481C1201.62 199.85 1195.13 200.51 1189.46 201.69C1183.68 202.893 1178.29 204.738 1175.51 205.871L1177.03 209.575ZM1140.98 227.093L1177.14 209.522L1175.4 205.924L1139.23 223.495L1140.98 227.093ZM1195.97 241.38L1140.72 223.392L1139.49 227.196L1194.73 245.183L1195.97 241.38ZM1211.75 258.363C1213.68 257.859 1213.68 257.858 1213.68 257.857C1213.68 257.856 1213.68 257.855 1213.68 257.854C1213.68 257.853 1213.68 257.851 1213.68 257.849C1213.68 257.845 1213.68 257.84 1213.68 257.834C1213.67 257.824 1213.67 257.81 1213.66 257.795C1213.66 257.763 1213.64 257.721 1213.63 257.67C1213.6 257.569 1213.55 257.429 1213.49 257.255C1213.38 256.909 1213.19 256.426 1212.93 255.841C1212.41 254.671 1211.57 253.085 1210.28 251.351C1207.67 247.868 1203.25 243.832 1195.99 241.386L1194.71 245.177C1201.12 247.336 1204.9 250.841 1207.07 253.747C1208.17 255.208 1208.86 256.529 1209.28 257.468C1209.49 257.937 1209.63 258.309 1209.71 258.553C1209.75 258.675 1209.78 258.765 1209.8 258.818C1209.8 258.845 1209.81 258.863 1209.81 258.872C1209.81 258.876 1209.81 258.878 1209.81 258.877C1209.81 258.877 1209.81 258.876 1209.81 258.874C1209.81 258.873 1209.81 258.872 1209.81 258.871C1209.81 258.871 1209.81 258.87 1209.81 258.869C1209.81 258.868 1209.81 258.867 1211.75 258.363ZM1219.61 281.932L1213.69 257.885L1209.8 258.842L1215.73 282.889L1219.61 281.932ZM1224.24 280.41H1217.67V284.41H1224.24V280.41ZM1226.24 315.912V282.41H1222.24V315.912H1226.24ZM1182.09 317.912H1224.24V313.912H1182.09V317.912ZM1130.3 268.47C1157.07 268.47 1178.89 289.546 1180.1 316.003L1184.09 315.821C1182.78 287.238 1159.22 264.47 1130.3 264.47V268.47ZM1080.44 318.315C1080.44 290.777 1102.76 268.47 1130.3 268.47V264.47C1100.55 264.47 1076.44 288.566 1076.44 318.315H1080.44ZM993.646 320.315H1078.44V316.315H993.646V320.315ZM941.789 268.47C969.337 268.47 991.646 290.776 991.646 318.315H995.646C995.646 288.566 971.545 264.47 941.789 264.47V268.47ZM892.031 315.229C893.629 289.134 915.284 268.47 941.789 268.47V264.47C913.156 264.47 889.765 286.793 888.038 314.985L892.031 315.229Z" fill="black" mask="url(#path-258-inside-3_1637_65095)"/>
<path d="M941.789 357C963.145 357 980.449 339.674 980.449 318.312C980.449 296.966 963.146 279.64 941.789 279.64C920.42 279.64 903.113 296.967 903.113 318.312C903.113 339.674 920.42 357 941.789 357ZM941.789 336.686C931.647 336.686 923.415 328.467 923.415 318.312C923.415 308.169 931.647 299.946 941.789 299.946C951.931 299.946 960.159 308.169 960.159 318.312C960.159 328.467 951.931 336.686 941.789 336.686Z" fill="black" stroke="black" stroke-width="2"/>
<path d="M1077.45 317.312C1077.69 304.316 1082.65 292.486 1090.66 283.412H981.431C989.436 292.486 994.392 304.316 994.635 317.312H1077.45Z" fill="#A19F9A" stroke="black" stroke-width="2"/>
<path d="M889.145 313.587C890.341 300.182 896.564 288.246 905.879 279.611L872.154 260.552L865 268.513V302.275L889.145 313.587Z" fill="#A19F9A" stroke="black" stroke-width="2"/>
<path d="M967.764 174.874L937.321 173.834C937.311 173.835 937.298 173.835 937.284 173.835C937.234 173.837 937.159 173.839 937.061 173.844C936.864 173.854 936.573 173.871 936.21 173.905C935.484 173.972 934.474 174.101 933.345 174.346C931.058 174.844 928.419 175.793 926.606 177.555L908.574 195.073L908.548 195.096L908.08 195.526C905.786 197.651 904.278 199.434 903.324 201.222C902.319 203.105 901.894 205.057 901.894 207.533V218.074L970.331 220.447L967.764 174.874Z" fill="#E8E7E3" stroke="black" stroke-width="2"/>
</g>
</svg>
